<svg width="176" height="160" viewBox="0 0 176 160" fill="none" xmlns="http://www.w3.org/2000/svg">
<path d="M171.852 91.6679C171.852 138.251 4.14551 138.251 4.14551 91.6679C4.14551 57.8188 41.6877 30.3786 87.9987 30.3786C134.31 30.3786 171.852 57.8188 171.852 91.6679Z" fill="#D7A251"/>
<path d="M143.329 39.8126C141.755 38.8813 139.568 39.258 138.637 40.7392C128.669 56.6104 113.122 86.2477 99.3136 84.16C90.2034 82.7825 105.392 43.8126 110.783 31.3507C111.554 29.5688 110.356 27.5838 108.282 27.2264C102.295 26.1937 96.0726 25.6074 89.6832 25.5195C88.6141 26.0684 87.7663 26.5034 86.6972 27.0522C74.8432 45.647 53.6506 83.0799 41.6146 79.1092C36.0471 77.2726 41.4584 51.7367 46.6039 38.8034C47.6358 36.2099 44.6576 33.7922 41.9347 35.0172C16.7756 46.3369 0 66.6492 0 89.8273C0 151.197 176.751 147.524 175.998 89.8273C175.734 69.629 163.256 51.6044 143.329 39.8126Z" fill="#E0B87A"/>
<path d="M94.1167 27.2226C96.1898 27.5803 97.3888 29.565 96.6179 31.3469C91.2271 43.8089 89.9434 63.9392 91.4226 70.6637C92.8391 77.1024 96.5262 79.8369 96.5262 79.8369C95.5552 69.0934 106.403 41.4713 110.783 31.3466C111.553 29.5647 110.355 27.5796 108.281 27.2223C102.295 26.1895 96.0719 25.6033 89.6824 25.5154C89.1009 25.8138 88.585 26.0788 88.063 26.3466C90.1049 26.5897 92.1248 26.8791 94.1167 27.2226Z" fill="#E0B87A"/>
<path d="M39.3333 74.0003C38.6895 65.4849 42.7212 48.557 46.6032 38.7999C47.6351 36.2065 44.6572 33.7888 41.934 35.0137C38.4048 36.6015 35.041 38.3663 31.8652 40.2911C27.916 62.0791 38.5397 73.8834 39.3333 74.0003Z" fill="#E0B87A"/>
<path d="M143.328 39.8088C141.754 38.8775 139.567 39.2542 138.636 40.7354C137.887 41.9284 137.106 43.2004 136.297 44.5293C152.026 56.154 161.601 72.1572 161.832 89.8232C162.194 117.569 121.509 132.818 79.1699 134.353C126.094 136.064 176.4 120.662 175.997 89.8232C175.733 69.6252 163.255 51.6006 143.328 39.8088Z" fill="#E0B87A"/>
</svg>
