<?xml version="1.0" encoding="utf-8"?>
<!-- Generator: Adobe Illustrator 27.5.0, SVG Export Plug-In . SVG Version: 6.00 Build 0)  -->
<svg version="1.1" xmlns="http://www.w3.org/2000/svg" xmlns:xlink="http://www.w3.org/1999/xlink" x="0px" y="0px"
	 viewBox="0 0 500 500" style="enable-background:new 0 0 500 500;" xml:space="preserve">
<g id="BACKGROUND">
	<rect style="fill:#FFFFFF;" width="500" height="500"/>
</g>
<g id="OBJECTS">
	<g>
		<ellipse style="fill:#EFEDED;" cx="247.158" cy="423.99" rx="150.135" ry="8.432"/>
		<g>
			<g>
				<g>
					<g>
						<path style="fill:#48A800;" d="M341.001,284.645c1.173,1.508,2.001,3.354,2.225,5.402c0.646,5.928-3.628,11.247-9.556,11.893
							c-5.928,0.646-11.247-3.628-11.893-9.556c-0.223-2.048,0.188-4.029,1.009-5.754c-4.326-2.419-7.451-6.823-8.026-12.104
							c-0.288-2.641,0.086-5.217,1.007-7.526c-4.058-3.211-6.895-7.974-7.5-13.525c-1.198-10.994,6.752-20.858,17.719-22.053
							c10.967-1.195,20.828,6.728,22.026,17.722c0.605,5.551-1.112,10.81-4.383,14.82c1.396,2.056,2.316,4.492,2.604,7.133
							C346.808,276.378,344.705,281.351,341.001,284.645z"/>
						<path style="fill:#409400;" d="M341.001,284.645c1.173,1.508,2.001,3.354,2.225,5.402c0.646,5.928-3.628,11.247-9.556,11.893
							l-7.685-70.518c10.967-1.195,20.828,6.728,22.026,17.722c0.605,5.551-1.112,10.81-4.383,14.82
							c1.396,2.056,2.316,4.492,2.604,7.133C346.808,276.378,344.705,281.351,341.001,284.645z"/>
						<path style="fill:#59C300;" d="M339.623,246.603c0.408-0.387,0.423-1.03,0.035-1.436c-0.385-0.409-1.036-0.42-1.436-0.035
							l-7.881,7.505l-1.252-11.492c-0.122-1.116-1.126-1.922-2.241-1.801c-1.116,0.122-1.922,1.125-1.801,2.241l1.253,11.498
							l-9.324-5.637c-0.479-0.29-1.107-0.139-1.395,0.344c-0.291,0.48-0.138,1.105,0.344,1.395l10.652,6.44l2.237,20.531
							l-8.028-4.278c-0.489-0.262-1.109-0.082-1.374,0.42c-0.266,0.495-0.076,1.111,0.419,1.375l9.249,4.929l1.653,15.171
							l-3.87-2.062c-0.489-0.261-1.108-0.08-1.373,0.42c-0.266,0.495-0.076,1.111,0.419,1.375l5.091,2.713l2.146,19.693
							c0.122,1.116,1.125,1.922,2.241,1.801c1.116-0.121,1.922-1.125,1.801-2.241l-2.147-19.699l4.378-3.739
							c0.429-0.365,0.479-1.007,0.113-1.434c-0.364-0.43-1.01-0.473-1.432-0.113l-3.325,2.84l-1.653-15.172l7.961-6.797
							c0.429-0.365,0.479-1.007,0.113-1.433c-0.364-0.433-1.01-0.476-1.432-0.114l-6.909,5.899l-2.237-20.53L339.623,246.603z"/>
					</g>
					<g>
						<path style="fill:#409400;" d="M405.261,252.722c-1.52-0.606-3.358-1.105-5.48-1.27c0,0,10.884-5.054,9.02-13.472
							c-0.465-2.101-1.658-4.02-3.371-5.322c-1.94-1.475-5.144-2.75-9.733-1.019c0,0,3.233-9.848-5.616-12.95
							c-9.129-2.14-11.695,7.903-11.695,7.903c-2.94-3.927-6.327-4.573-8.756-4.372c-2.145,0.178-4.182,1.154-5.703,2.676
							c-6.096,6.097,0.367,16.209,0.367,16.209c-1.879-1.002-3.697-1.568-5.304-1.874c-4.19-0.798-8.189,2.202-8.58,6.449
							c-1.135,12.334,15.49,25.828,15.49,25.828l8.094,2.36l8.094,2.36c0,0,21.272-2.445,26.944-13.457
							C410.984,258.98,409.224,254.302,405.261,252.722z"/>
						<path style="fill:#59C300;" d="M395.762,260.847c-0.108-0.545-0.641-0.893-1.181-0.783l-16.495,3.348l4.158-14.263
							l11.242-3.72c0.526-0.175,0.812-0.742,0.638-1.266c-0.178-0.531-0.747-0.809-1.266-0.638l-9.932,3.287l2.973-10.198
							c0.155-0.532-0.15-1.088-0.682-1.243c-0.532-0.155-1.088,0.15-1.243,0.682l-2.974,10.199l-6.609-8.11
							c-0.345-0.425-0.977-0.495-1.411-0.142c-0.428,0.348-0.492,0.98-0.142,1.411l7.481,9.179l-4.159,14.263l-12.111-11.689
							c-0.394-0.382-1.032-0.376-1.417,0.025c-0.385,0.398-0.375,1.033,0.025,1.417l12.868,12.42l-3.292,11.29
							c-0.155,0.532,0.15,1.088,0.682,1.243c0.532,0.155,1.088-0.15,1.243-0.682l3.292-11.29l17.527-3.558
							C395.522,261.92,395.873,261.39,395.762,260.847z"/>
						<path style="fill:#FFE6B3;" d="M395.398,310.908c-9.392,20.966-27.129,26.717-36.193,28.294
							c-3.258,0.575-6.609-0.256-9.228-2.231c-0.294-0.211-0.576-0.46-0.858-0.71c-5.594-5.098-14.589-15.719-15.766-31.956
							c-0.065-0.708-0.092-1.405-0.112-2.121c-0.092-2.909,0.076-5.992,0.562-9.234c0,0,0.983-9.675,7.682-16.891
							c0.518-0.559,1.069-1.088,1.658-1.605c5.867-5.223,15.339-8.414,30.622-3.958
							C410.337,281.158,395.398,310.908,395.398,310.908z"/>
						<path style="fill:#FFDB96;" d="M395.398,310.908c-9.392,20.966-27.129,26.717-36.193,28.294
							c-1.431,0.251-2.871,0.249-4.252-0.028c-1.802-0.337-3.506-1.085-4.976-2.203c12.435-1.533,22.217-14.741,26.846-22.31
							c2.187-3.56,3.997-7.335,5.132-11.369c6.003-21.307-8.19-32.796-8.19-32.796c4.908,1.431,8.898,3.221,12.115,5.224
							c0.013,0.025,0.013,0.025,0.013,0.025C406.593,288.629,395.398,310.908,395.398,310.908z"/>
						<path style="fill:#FBD07A;" d="M395.398,310.908c-9.392,20.966-27.129,26.717-36.193,28.294
							c-1.431,0.251-2.871,0.249-4.252-0.028c9.954-1.045,19.847-10.337,25.658-16.871c5.001-5.622,8.772-12.25,10.563-19.539
							c3.109-12.669-1.051-21.609-5.28-27.019C406.593,288.629,395.398,310.908,395.398,310.908z"/>
						<path style="opacity:0.84;fill:#FFE6B3;" d="M352.371,278.188c-0.151,0.52-0.704,0.839-1.243,0.682l-9.644-2.812
							c0.518-0.559,1.069-1.088,1.658-1.605l8.546,2.492C352.228,277.102,352.528,277.649,352.371,278.188z"/>
						<path style="opacity:0.84;fill:#FFE6B3;" d="M366.623,292.604l-16.523-4.817c-0.532-0.155-0.837-0.711-0.682-1.243
							c0.155-0.532,0.711-0.837,1.243-0.682l16.523,4.817c0.532,0.155,0.837,0.711,0.682,1.243
							C367.711,292.454,367.155,292.759,366.623,292.604z"/>
						<path style="opacity:0.84;fill:#FFE6B3;" d="M352.808,296.408l-12.517-3.65c-0.532-0.155-0.837-0.711-0.682-1.243
							c0.155-0.532,0.711-0.837,1.243-0.682l12.517,3.65c0.532,0.155,0.837,0.711,0.682,1.243
							C353.896,296.258,353.34,296.563,352.808,296.408z"/>
						<path style="opacity:0.84;fill:#FFE6B3;" d="M376.012,281.593l-11.068-3.227c-0.532-0.155-0.837-0.711-0.682-1.243
							c0.155-0.532,0.711-0.837,1.243-0.682l11.068,3.227c0.532,0.155,0.837,0.711,0.682,1.243
							C377.099,281.443,376.543,281.748,376.012,281.593z"/>
						<path style="opacity:0.84;fill:#FFE6B3;" d="M389.821,293.625l-12.03-3.508c-0.532-0.155-0.837-0.711-0.682-1.243
							c0.155-0.532,0.711-0.837,1.243-0.682l12.03,3.508c0.532,0.155,0.837,0.711,0.682,1.243
							C390.909,293.475,390.353,293.78,389.821,293.625z"/>
						<path style="opacity:0.84;fill:#FFE6B3;" d="M392.429,307.96l-16.523-4.817c-0.532-0.155-0.837-0.711-0.682-1.243
							c0.155-0.532,0.711-0.837,1.243-0.682l16.523,4.817c0.532,0.155,0.837,0.711,0.682,1.243
							C393.517,307.81,392.961,308.115,392.429,307.96z"/>
						<path style="opacity:0.84;fill:#FFE6B3;" d="M371.349,309.821l-16.361-4.77c-0.532-0.155-0.837-0.711-0.682-1.243
							c0.155-0.532,0.711-0.837,1.243-0.682l16.361,4.77c0.532,0.155,0.837,0.711,0.682,1.243
							C372.437,309.671,371.881,309.976,371.349,309.821z"/>
						<path style="opacity:0.84;fill:#FFE6B3;" d="M344.143,306.407c-0.157,0.539-0.704,0.839-1.243,0.682l-9.547-2.784
							c-0.065-0.708-0.092-1.405-0.112-2.121l10.221,2.98C344,305.321,344.295,305.887,344.143,306.407z"/>
						<path style="opacity:0.84;fill:#FFE6B3;" d="M357.048,318.878l-14.758-4.303c-0.532-0.155-0.837-0.711-0.682-1.243
							c0.155-0.532,0.711-0.837,1.243-0.682l14.758,4.303c0.532,0.155,0.837,0.711,0.682,1.243
							C358.136,318.728,357.58,319.033,357.048,318.878z"/>
						<path style="opacity:0.84;fill:#FFE6B3;" d="M380.24,319.026l-8.262-2.409c-0.532-0.155-0.837-0.711-0.682-1.243
							c0.155-0.532,0.711-0.837,1.243-0.682l8.262,2.409c0.532,0.155,0.837,0.711,0.682,1.243
							C381.327,318.876,380.771,319.181,380.24,319.026z"/>
						<path style="opacity:0.84;fill:#FFE6B3;" d="M372.909,329.246l-11.309-3.297c-0.532-0.155-0.837-0.711-0.682-1.243
							c0.155-0.532,0.711-0.837,1.243-0.682l11.309,3.297c0.532,0.155,0.837,0.711,0.682,1.243
							C373.997,329.096,373.441,329.401,372.909,329.246z"/>
						<path style="opacity:0.84;fill:#FFE6B3;" d="M361.801,335.405l-12.431-3.624c-0.532-0.155-0.837-0.711-0.682-1.243
							c0.155-0.532,0.711-0.837,1.243-0.682l12.431,3.624c0.532,0.155,0.837,0.711,0.682,1.243
							C362.889,335.255,362.333,335.56,361.801,335.405z"/>
					</g>
					<g>
						<path style="fill:#A21C47;" d="M260.941,323.328c0,0-31.237-7.302-17.008-41.294c0,0,12.006-31.445,34.548-35.382
							c1.233-0.196,2.499-0.147,3.718,0.192c1.188,0.33,2.297,0.942,3.252,1.746c17.278,15.005,11.336,48.135,11.336,48.135
							C291.435,333.184,260.941,323.328,260.941,323.328z"/>
						<path style="fill:#CC005F;" d="M282.199,246.844l-21.258,76.484c0,0-31.237-7.302-17.008-41.294
							c0,0,12.006-31.445,34.548-35.382C279.714,246.456,280.98,246.505,282.199,246.844z"/>
						<path style="fill:#DD4178;" d="M291.936,300.934c-0.331-0.585-1.075-0.792-1.66-0.461l-21.13,11.939l3.947-17.712
							l21.913-12.381c0.582-0.331,0.788-1.073,0.461-1.658c-0.331-0.585-1.075-0.792-1.661-0.461l-20,11.301l3.61-16.199
							l13.806-7.801c0.582-0.331,0.788-1.073,0.461-1.657c-0.331-0.585-1.075-0.792-1.66-0.461l-11.893,6.72l4.804-21.561
							l-0.03-0.018c0.242-0.891-0.278-1.811-1.169-2.059c-0.894-0.248-1.819,0.275-2.068,1.168l-7.011,20.948l-6.72-11.893
							c-0.331-0.585-1.075-0.792-1.661-0.461c-0.582,0.331-0.788,1.073-0.461,1.657l7.801,13.806l-5.267,15.739l-11.301-20
							c-0.331-0.585-1.075-0.792-1.661-0.462c-0.582,0.331-0.788,1.073-0.461,1.657l12.381,21.913l-5.759,17.208l-11.939-21.13
							c-0.331-0.585-1.075-0.792-1.661-0.461c-0.582,0.331-0.788,1.073-0.461,1.657l13.02,23.043l-7.476,22.339
							c-1.11,3.449,0.872,7.128,4.363,8.098c3.491,0.97,7.087-1.159,7.916-4.686l5.123-22.993l23.043-13.019
							C292.057,302.26,292.263,301.518,291.936,300.934z"/>
					</g>
					<g>
						<path style="fill:#F03018;" d="M195.23,326.204c-12.886,0.905-13.09-11.857-13.09-11.857l-1.29-32.842
							c-0.021-0.141-0.043-0.282-0.064-0.422c-0.652-4.708,0.616-9.073,3.145-12.492c0.027-0.031,0.06-0.081,0.137-0.158
							c3.712-4.928,10.037-7.864,16.84-6.987c6.006,0.747,9.226,3.823,10.566,5.504c-1.721,0.23-3.271,0.697-4.623,1.292
							c-5.145,2.335-8.546,7.401-9.321,12.995l-4.733,33.945c-0.204,1.531-0.304,3.108-0.087,4.652
							C193.068,322.553,194.038,324.62,195.23,326.204z"/>
						<g>
							<path style="fill:#D91E00;" d="M192.015,262.509c2.724-1.038,5.749-1.469,8.89-1.071c6.013,0.764,9.227,3.837,10.57,5.521
								l-0.001,0c2.24-0.298,4.79-0.208,7.7,0.502l1.555-5.994C206.89,248.139,196.063,257.723,192.015,262.509z"/>
						</g>
						<path style="fill:#F03018;" d="M231.389,290.023l-12.369,31.963c-0.566,1.437-1.245,2.864-2.186,4.107
							c-5.755,7.739-14.161,4.998-14.161,4.998s-2.481-0.489-4.994-2.416c-0.018-0.005-0.036-0.009-0.036-0.009
							c-2.175-1.665-4.341-4.41-4.932-8.832c-0.217-1.544-0.117-3.121,0.087-4.652l4.733-33.945
							c0.775-5.593,4.176-10.66,9.321-12.995c3.123-1.391,7.174-2.04,12.332-0.779c5.103,1.401,8.327,3.938,10.379,6.672
							C232.923,278.677,233.431,284.758,231.389,290.023z"/>
						<path style="fill:#F03018;" d="M246.096,298.03c-0.087,0.113-0.174,0.225-0.261,0.338l-17.096,28.071
							c0,0-6.383,11.053-17.204,3.996c1.812-0.805,3.665-2.139,5.299-4.342c0.941-1.243,1.62-2.67,2.186-4.107l12.369-31.963
							c2.042-5.264,1.534-11.345-1.826-15.887c-0.892-1.178-2.02-2.34-3.412-3.377c1.989-0.817,6.298-1.939,11.909,0.328
							C248.909,275.428,253.153,288.698,246.096,298.03z"/>
						<g>
							<path style="fill:#D91E00;" d="M245.315,276.34c-1.876-2.232-4.309-4.079-7.248-5.258c-5.626-2.257-9.928-1.134-11.921-0.315
								l0.001,0c-1.813-1.35-4.085-2.511-6.973-3.306l1.555-5.994C239.304,256.55,244.105,270.189,245.315,276.34z"/>
						</g>
						<path style="fill:#86B300;" d="M232.357,269.776c-0.731-1.646-3.35-5.874-11.627-8.309c-8.417-1.897-12.761,0.524-14.2,1.607
							c2.532,1.235,4.104,2.832,4.945,3.886c-0.008,0.001-0.015,0.004-0.023,0.005c2.243-0.305,4.801-0.215,7.722,0.497
							c2.899,0.798,5.177,1.964,6.99,3.32c-0.007-0.005-0.011-0.01-0.018-0.015C227.393,270.255,229.544,269.624,232.357,269.776z"
							/>
						<path style="fill:#E42406;" d="M231.389,290.023l-12.369,31.963c-0.566,1.437-1.245,2.864-2.186,4.107
							c-5.755,7.739-14.161,4.998-14.161,4.998s-2.481-0.489-4.994-2.416c13.115,6.03,17.451-6.887,17.451-6.887l10.398-29.5
							c6.84-18.023-6.345-24.824-6.345-24.824c5.103,1.401,8.327,3.938,10.379,6.672
							C232.923,278.677,233.431,284.758,231.389,290.023z"/>
						<path style="fill:#E42406;" d="M246.096,298.03c-0.087,0.113-0.174,0.225-0.261,0.338l-17.096,28.071
							c0,0-6.383,11.053-17.204,3.996c3.117,1.311,6.466,1.06,9.316-0.77c3.184-2.071,4.646-5.4,6.466-8.617
							c4.732-8.41,9.243-16.936,13.528-25.559c3.62-7.327,5.229-17.398-3.381-22.027c-3.407-1.831-7.481-2.656-11.312-2.704
							c1.989-0.817,6.298-1.939,11.909,0.328C248.909,275.428,253.153,288.698,246.096,298.03z"/>
						<path style="fill:#E42406;" d="M195.23,326.204c-6.172-1.969-5.281-10.313-5.281-10.313l4.081-33.071
							c1.044-9.309,4.78-13.806,7.274-15.824c0.859-0.704,0.549-2.117-0.518-2.394c-9.615-2.398-15.665,2.831-16.717,3.832
							c3.712-4.928,10.037-7.864,16.84-6.987c6.006,0.747,9.226,3.823,10.566,5.504c-1.721,0.23-3.271,0.697-4.623,1.292
							c-5.145,2.335-8.546,7.401-9.321,12.995l-4.733,33.945c-0.204,1.531-0.304,3.108-0.087,4.652
							C193.068,322.553,194.038,324.62,195.23,326.204z"/>
						<path style="fill:#FA5844;" d="M200.688,283.723c0.043,0.713,0.215,1.376,0.565,1.931c0.678,1.073,2.047,1.325,3.152,0.794
							c2.977-1.43,3.287-6.733,5.021-9.293c0.709-1.046,1.607-2.077,1.941-3.323c0.574-2.143-1.707-2.265-3.216-1.67
							c-2.595,1.023-4.653,3.254-5.924,5.69C201.457,279.328,200.566,281.72,200.688,283.723z"/>
						<path style="fill:#FA5844;" d="M204.046,293.896c-0.535,2.061-2.12,3.433-3.542,3.065c-1.421-0.369-2.139-2.339-1.605-4.4
							c0.535-2.061,2.121-3.433,3.542-3.065C203.862,289.865,204.58,291.835,204.046,293.896z"/>
						<path style="fill:#FA5844;" d="M200.63,301.521c-0.255,0.983-1.011,1.637-1.688,1.461c-0.677-0.176-1.02-1.115-0.765-2.097
							c0.255-0.983,1.011-1.637,1.688-1.461C200.542,299.599,200.885,300.538,200.63,301.521z"/>
						<path style="fill:#86B300;" d="M218.677,262.095c2.9-4.677,7.675-14.92-3.613-18.16c-2.273-0.652-3.521-3.105-2.827-5.366l0,0
							c0.799-2.602,3.792-3.852,6.168-2.526c5.73,3.197,13.424,11,3.9,28.177c-0.46,0.83-1.44,1.234-2.359,0.996l0,0
							C218.586,264.863,217.936,263.29,218.677,262.095z"/>
					</g>
					<g>
						<path style="fill:#00A64D;" d="M248.705,336.117c0,0-23.628-0.971-28.598-26.246c0,0,3.633-1.136,6.902,1.042
							c-0.33-0.349-7.218-7.65-7.834-17.015c0,0,3.115-0.169,4.399,0.802c0,0-0.991-7.791,5.845-16.917
							c10.928,3.253,14.777,10.099,14.777,10.099c0.442-1.541,3.054-3.266,3.054-3.266c5.088,7.886,3.91,17.855,3.853,18.331
							c1.326-3.697,4.92-4.951,4.92-4.951C267.097,321.252,248.705,336.117,248.705,336.117z"/>
						<path style="fill:#00B052;" d="M248.705,336.117l-19.287-58.334c10.928,3.253,14.777,10.099,14.777,10.099
							c0.442-1.541,3.054-3.266,3.054-3.266c5.088,7.886,3.91,17.855,3.853,18.331c1.326-3.697,4.92-4.951,4.92-4.951
							C267.097,321.252,248.705,336.117,248.705,336.117z"/>
						<path style="fill:#00BF59;" d="M251.424,311.021c-2.25,5.405-5.539,8.291-7.059,9.405l-5.452-16.49
							c1.466-0.979,5.396-4.059,8.035-10.399c0.168-0.402-0.03-0.852-0.441-1.005c-0.412-0.153-0.88,0.048-1.048,0.451
							c-2.25,5.404-5.539,8.29-7.059,9.404l-5.145-15.563c-0.135-0.407-0.587-0.623-1.009-0.484c-0.423,0.14-0.656,0.583-0.522,0.99
							l5.146,15.566c-1.877,0.017-6.222-0.333-11.275-3.346c-0.376-0.223-0.871-0.106-1.11,0.262
							c-0.239,0.368-0.129,0.847,0.245,1.07c5.898,3.517,10.889,3.648,12.65,3.559l5.452,16.49
							c-1.885,0.011-6.246-0.345-11.274-3.344c-0.376-0.224-0.871-0.106-1.11,0.263c-0.239,0.368-0.129,0.847,0.245,1.07
							c5.898,3.517,10.889,3.648,12.65,3.559l5.553,16.795c0.134,0.407,0.587,0.623,1.009,0.484c0.423-0.14,0.656-0.583,0.522-0.99
							l-5.553-16.795c1.466-0.979,5.396-4.059,8.035-10.399c0.168-0.402-0.03-0.852-0.441-1.006
							C252.059,310.417,251.591,310.617,251.424,311.021z"/>
					</g>
					<g>
						<path style="fill:#00A64D;" d="M325.142,188.368c0,0-10.337,6.704-20.063-2.543c0,0,1.203-1.577,3.248-1.636
							c-0.245-0.049-5.373-1.078-8.455-4.874c0,0,1.273-1.01,2.111-0.984c0,0-2.768-3.014-2.611-8.952
							c5.625-1.909,9.324-0.158,9.324-0.158c-0.276-0.788,0.315-2.308,0.315-2.308c4.538,1.82,7.04,6.412,7.159,6.632
							c-0.55-1.971,0.601-3.587,0.601-3.587C328.484,176.509,325.142,188.368,325.142,188.368z"/>
						<path style="fill:#00B052;" d="M325.142,188.368l-25.769-18.989c5.625-1.909,9.324-0.158,9.324-0.158
							c-0.276-0.788,0.315-2.308,0.315-2.308c4.538,1.82,7.04,6.412,7.159,6.632c-0.55-1.971,0.601-3.587,0.601-3.587
							C328.484,176.509,325.142,188.368,325.142,188.368z"/>
						<path style="fill:#00BF59;" d="M318.74,176.88c0.672,2.975,0.143,5.193-0.168,6.124l-7.284-5.368
							c0.329-0.858,1.072-3.351,0.284-6.841c-0.05-0.221-0.269-0.353-0.49-0.295c-0.221,0.059-0.359,0.285-0.309,0.507
							c0.671,2.975,0.142,5.193-0.168,6.124l-6.875-5.066c-0.18-0.132-0.437-0.088-0.575,0.098
							c-0.138,0.187-0.104,0.446,0.076,0.578l6.876,5.067c-0.793,0.572-2.745,1.732-5.801,1.973
							c-0.227,0.018-0.402,0.217-0.393,0.446c0.009,0.228,0.2,0.399,0.427,0.381c3.566-0.281,5.728-1.729,6.45-2.297l7.284,5.368
							c-0.798,0.572-2.759,1.734-5.8,1.974c-0.227,0.018-0.402,0.217-0.393,0.446c0.01,0.229,0.2,0.399,0.427,0.381
							c3.566-0.281,5.728-1.729,6.45-2.297l7.419,5.467c0.18,0.132,0.437,0.088,0.575-0.098c0.138-0.187,0.103-0.446-0.076-0.578
							l-7.419-5.467c0.329-0.858,1.072-3.351,0.284-6.841c-0.05-0.222-0.269-0.353-0.49-0.295
							C318.828,176.432,318.689,176.658,318.74,176.88z"/>
					</g>
					<g>
						<path style="fill:#00A64D;" d="M250.65,103.511c0,0-2.135-6.794,4.519-10.781c0,0,0.693,0.914,0.409,2.062
							c0.065-0.129,1.431-2.826,4.022-3.956c0,0,0.366,0.865,0.222,1.328c0,0,2.107-1.076,5.39-0.07
							c0.193,3.428-1.354,5.217-1.354,5.217c0.482-0.032,1.237,0.532,1.237,0.532c-1.715,2.246-4.66,2.929-4.801,2.962
							c1.183-0.001,1.905,0.889,1.905,0.889C256.739,107.206,250.65,103.511,250.65,103.511z"/>
						<path style="fill:#00B052;" d="M250.65,103.511l14.561-11.416c0.193,3.428-1.354,5.217-1.354,5.217
							c0.482-0.032,1.237,0.532,1.237,0.532c-1.715,2.246-4.66,2.929-4.801,2.962c1.183-0.001,1.905,0.889,1.905,0.889
							C256.739,107.206,250.65,103.511,250.65,103.511z"/>
						<path style="fill:#00BF59;" d="M258.039,101.721c-1.761-0.086-2.914-0.723-3.385-1.04l4.116-3.227
							c0.427,0.316,1.701,1.115,3.766,1.216c0.131,0.007,0.238-0.095,0.24-0.227c0.001-0.132-0.103-0.244-0.235-0.251
							c-1.761-0.086-2.914-0.724-3.385-1.041l3.885-3.046c0.102-0.08,0.117-0.23,0.034-0.335s-0.232-0.126-0.334-0.047l-3.886,3.046
							c-0.196-0.53-0.54-1.797-0.202-3.536c0.025-0.129-0.059-0.258-0.188-0.288c-0.129-0.03-0.253,0.05-0.278,0.179
							c-0.395,2.03,0.077,3.458,0.282,3.948l-4.116,3.227c-0.195-0.533-0.539-1.805-0.202-3.536
							c0.025-0.129-0.059-0.258-0.188-0.288c-0.129-0.03-0.253,0.05-0.278,0.179c-0.395,2.03,0.077,3.458,0.282,3.948l-4.192,3.287
							c-0.102,0.08-0.117,0.23-0.034,0.335c0.083,0.106,0.232,0.127,0.334,0.047l4.192-3.287c0.427,0.316,1.701,1.115,3.766,1.216
							c0.131,0.007,0.238-0.095,0.24-0.228C258.275,101.84,258.17,101.728,258.039,101.721z"/>
					</g>
					<g>
						<path style="fill:#86B200;" d="M139.061,317.971c0,0-24.986,18.117-40.743-13.642c0,0-15.304-28.538-3.968-47.411
							c0.634-1.02,1.467-1.91,2.481-2.583c0.988-0.656,2.132-1.077,3.318-1.265c21.795-3.113,42.145,22.077,42.145,22.077
							C165.437,302.004,139.061,317.971,139.061,317.971z"/>
						<path style="fill:#93BD00;" d="M96.832,254.335l42.229,63.636c0,0-24.986,18.117-40.743-13.642
							c0,0-15.304-28.538-3.968-47.411C94.985,255.898,95.818,255.008,96.832,254.335z"/>
						<path style="fill:#A5CF00;" d="M142.3,281.326c-0.634-0.128-1.253,0.283-1.382,0.917l-4.628,22.886l-10.394-14.027
							l4.799-23.735c0.126-0.632-0.284-1.249-0.915-1.379c-0.634-0.128-1.253,0.283-1.382,0.917l-4.381,21.663l-9.507-12.829
							l3.024-14.953c0.126-0.632-0.284-1.249-0.915-1.379c-0.634-0.128-1.253,0.283-1.382,0.917l-2.605,12.882L99.981,256.13
							l-0.032,0.011c-0.495-0.737-1.492-0.938-2.233-0.447c-0.743,0.493-0.946,1.496-0.453,2.24l10.818,18.294l-12.882-2.605
							c-0.634-0.128-1.253,0.283-1.382,0.917c-0.126,0.632,0.284,1.249,0.915,1.379l14.954,3.024l8.127,13.745l-21.663-4.381
							c-0.634-0.128-1.253,0.283-1.382,0.917c-0.126,0.632,0.284,1.249,0.915,1.379l23.735,4.799l8.886,15.027l-22.886-4.628
							c-0.634-0.128-1.253,0.283-1.382,0.917c-0.126,0.632,0.284,1.249,0.915,1.379l24.958,5.047l11.536,19.508
							c1.809,2.98,5.733,3.856,8.637,1.929c2.904-1.927,3.622-5.884,1.579-8.708l-13.494-18.209l5.047-24.958
							C143.341,282.073,142.931,281.456,142.3,281.326z"/>
					</g>
					<g>
						<path style="fill:#48A800;" d="M186.052,307.122c0.756,1.755,1.094,3.749,0.794,5.788c-0.866,5.9-6.34,9.973-12.24,9.107
							c-5.9-0.866-9.973-6.34-9.107-12.24c0.299-2.038,1.195-3.852,2.424-5.315c-3.579-3.429-5.495-8.477-4.724-13.734
							c0.386-2.628,1.395-5.028,2.867-7.031c-3.12-4.129-4.668-9.452-3.857-14.976c1.606-10.942,11.781-18.489,22.696-16.887
							c10.915,1.602,18.466,11.751,16.861,22.692c-0.811,5.525-3.795,10.182-7.97,13.241c0.834,2.341,1.112,4.93,0.726,7.558
							C193.751,300.581,190.465,304.866,186.052,307.122z"/>
						<path style="fill:#409400;" d="M186.052,307.122c0.756,1.755,1.094,3.749,0.794,5.788c-0.866,5.9-6.34,9.973-12.24,9.107
							l10.299-70.183c10.915,1.602,18.466,11.751,16.861,22.692c-0.811,5.525-3.795,10.182-7.97,13.241
							c0.834,2.341,1.112,4.93,0.726,7.558C193.751,300.581,190.465,304.866,186.052,307.122z"/>
						<path style="fill:#59C300;" d="M194.286,269.957c0.492-0.272,0.668-0.89,0.395-1.381c-0.27-0.493-0.897-0.667-1.381-0.395
							l-9.516,5.282l1.678-11.437c0.163-1.11-0.606-2.143-1.716-2.307c-1.11-0.163-2.143,0.606-2.307,1.716l-1.679,11.444
							l-7.606-7.801c-0.391-0.401-1.036-0.413-1.437-0.018c-0.403,0.392-0.411,1.035-0.018,1.437l8.69,8.912l-2.999,20.434
							l-6.694-6.16c-0.408-0.377-1.053-0.358-1.435,0.061c-0.382,0.412-0.353,1.056,0.059,1.436l7.712,7.097l-2.216,15.099
							l-3.227-2.969c-0.408-0.376-1.053-0.357-1.435,0.061c-0.382,0.412-0.353,1.056,0.06,1.436l4.245,3.906l-2.876,19.6
							c-0.163,1.11,0.606,2.143,1.716,2.306c1.11,0.163,2.144-0.606,2.307-1.716l2.877-19.606l5.177-2.517
							c0.507-0.245,0.717-0.854,0.47-1.36c-0.244-0.508-0.859-0.712-1.357-0.469l-3.933,1.912l2.216-15.1l9.415-4.576
							c0.507-0.245,0.717-0.854,0.47-1.358c-0.243-0.511-0.858-0.715-1.357-0.471l-8.17,3.971l2.999-20.433L194.286,269.957z"/>
					</g>
					<g>
						<path style="fill:#F9A500;" d="M167.791,273.41c0.618,2.496,1.072,5.031,1.404,7.561c0.848,6.329,1.357,12.688,1.524,19.059
							c0.056,1.525,0.079,3.057,0.085,4.594c0.009,0.828,0.001,1.659-0.006,2.49c-0.012,1.818-0.068,3.525-0.164,5.138
							c-0.08,1.678-0.188,3.243-0.352,4.716c-0.207,2.158-0.481,4.108-0.819,5.866c-0.318,1.839-0.708,3.454-1.124,4.885
							c-0.673,2.305-1.415,4.108-2.161,5.532c-1.758,3.326-5.521,4.853-8.929,3.979c-0.919-0.228-1.792-0.623-2.622-1.201
							c-2.292-1.626-5.129-4.297-8.363-8.687c-0.89-1.186-1.795-2.506-2.732-3.958c-1.572-2.439-3.201-5.262-4.92-8.53
							c-1.475-2.825-2.871-5.687-4.21-8.597c-0.624-1.371-1.255-2.775-1.833-4.174c-1.597-3.695-3.068-7.437-4.399-11.248
							c-2.019-5.736-3.554-11.831-3.369-17.959c0.018-1.145,0.102-2.306,0.276-3.454c0.069-0.431,0.138-0.863,0.244-1.286
							c1.336-5.8,5.978-10.356,11.844-11.766l8.349-2.008c4.754-1.143,9.729-0.076,13.498,2.803c1.19,0.924,2.272,2.046,3.186,3.33
							c0.213,0.312,0.426,0.623,0.623,0.939c1.472,2.238,2.604,4.645,3.514,7.139C166.907,270.167,167.382,271.781,167.791,273.41z"
							/>
						<path style="fill:#99C200;" d="M137.164,256.372c-0.245,0.059-0.474,0.114-0.715,0.189c-0.691,0.218-1.374,0.469-2.028,0.764
							c-0.785-2.041-3.405-6.112-12.114-8.044c0,0-12.426-2.191-13.732-12.888c-0.033-0.175-0.058-0.333-0.075-0.469
							c-0.058-0.384-0.043-0.612-0.043-0.612c-0.026-0.253-0.032-0.493-0.026-0.754c-0.006-0.241,0.041-0.477,0.112-0.684
							c0.193-0.565,0.637-1.017,1.213-1.208c2.845-0.961,10.045-2.502,17.435,2.859c0.744,1.152,1.574,2.231,2.465,3.278
							C136.971,247.449,137.164,256.372,137.164,256.372z"/>
						<path style="fill:#99C200;" d="M145.044,228.916c0.034,2.152-0.336,4.281-0.832,6.387c-2.585,11.026,1.3,19.061,1.3,19.061
							l-8.349,2.008c0,0-0.193-8.923-7.509-17.568c-1.4-1.651-2.696-3.378-3.645-5.311c-2.542-5.179-4.981-14.53,4.644-22.513
							c0,0,0.199,0.039,0.553,0.144C142.945,214.005,144.957,223.234,145.044,228.916z"/>
						<path style="fill:#99C200;" d="M160.058,236.297c-2.062,3.14-4.536,4.997-4.536,4.997c-6.894,5.685-7.361,10.498-7.132,12.673
							c-0.612,0.043-1.219,0.103-1.819,0.196l-0.016,0.004c-0.302,0.038-0.584,0.089-0.878,0.159l-0.163,0.039
							c0,0-0.028-0.045-0.072-0.156l-0.004-0.016c-0.531-1.203-3.602-8.795-1.225-18.89c0.301-1.334,0.566-2.677,0.705-4.041
							c4.145-8.135,11.257-10.035,14.228-10.473c0.833-0.131,1.648,0.312,2.04,1.082
							C164.142,227.693,162.364,232.805,160.058,236.297z"/>
						<path style="fill:#A5D100;" d="M137.164,256.372c-0.245,0.059-0.474,0.114-0.715,0.189
							c-2.205-10.894-8.996-17.141-13.383-20.148c-2.459-1.673-5.24-2.818-8.167-3.273c-3.301-0.502-5.233,0.014-6.357,0.734
							c0.193-0.565,0.637-1.017,1.213-1.208c2.845-0.961,10.045-2.502,17.435,2.859c0.744,1.152,1.574,2.231,2.465,3.278
							C136.971,247.449,137.164,256.372,137.164,256.372z"/>
						<path style="fill:#89AE00;" d="M134.421,257.326c-0.785-2.041-3.405-6.112-12.114-8.044c0,0-12.426-2.191-13.732-12.888
							c0.474,2.499,2.89,8.717,15.2,11.878C123.775,248.272,133.584,250.683,134.421,257.326z"/>
						<path style="fill:#A5D100;" d="M145.044,228.916c0.034,2.152-0.336,4.281-0.832,6.387c-2.585,11.026,1.3,19.061,1.3,19.061
							l-1.617,0.389c-5.12-9.432-1.99-22.145-1.99-22.145c1.891-16.856-8.177-20.778-10.698-21.485
							C142.945,214.005,144.957,223.234,145.044,228.916z"/>
						<path style="fill:#89AE00;" d="M134.595,243.821c1.887,3.176,4.354,8.044,4.089,12.186l-1.52,0.365
							c0,0-0.193-8.923-7.509-17.568c-1.4-1.651-2.696-3.378-3.645-5.311c-2.542-5.179-4.981-14.53,4.644-22.513
							c-1.805,2.197-2.944,3.715-3.621,5.14c-2.114,4.362-2.325,9.304-0.793,13.879
							C127.972,235.182,131.841,239.195,134.595,243.821z"/>
						<path style="fill:#89AE00;" d="M160.058,236.297c3.046-6.954,1.524-10.909,0.329-12.644c-0.487-0.73-1.389-1.031-2.23-0.794
							c-1.475,0.406-2.801,1.002-3.948,1.693c-4.745,2.835-7.777,7.764-8.84,13.187c-1.456,7.384,0.439,14.187,1.202,16.424
							l-0.016,0.004c-0.302,0.038-0.584,0.089-0.878,0.159l-0.163,0.039c0,0-0.028-0.045-0.072-0.156l-0.004-0.016
							c-0.531-1.203-3.602-8.795-1.225-18.89c0.301-1.334,0.566-2.677,0.705-4.041c4.145-8.135,11.257-10.035,14.228-10.473
							c0.833-0.131,1.648,0.312,2.04,1.082C164.142,227.693,162.364,232.805,160.058,236.297z"/>
						<path style="fill:#F79300;" d="M169.195,280.971c1.169,8.671,1.698,17.41,1.604,26.144
							c-0.142,14.068-2.368,21.845-4.62,26.137c-0.833,1.566-2.091,2.732-3.564,3.432c-1.658,0.796-3.559,1.011-5.365,0.547
							c10.091-8.632,2.036-51.613,2.036-51.613c-6.013-32.117-17.955-30.248-17.955-30.248l4.182-1.006
							c0.343-0.083,0.706-0.153,1.058-0.202c0,0,0.257-0.079,0.702-0.1c5.729-0.756,11.54,1.632,14.925,6.435
							C166.443,266.51,168.232,273.806,169.195,280.971z"/>
						<path style="fill:#E08600;" d="M169.195,280.971c1.169,8.671,1.698,17.41,1.604,26.144
							c-0.142,14.068-2.368,21.845-4.62,26.137c-0.833,1.566-2.091,2.732-3.564,3.432c7.973-13.272,3.827-45.96,3.827-45.96
							c-4.722-35.228-16.209-36.855-19.169-36.662c5.729-0.756,11.54,1.632,14.925,6.435
							C166.443,266.51,168.232,273.806,169.195,280.971z"/>
						<path style="fill:#FFC045;" d="M132.497,265.171c-1.891,0.832-3.385,2.737-3.961,5.124
							c-1.219,5.056,0.011,10.398,1.578,15.234c1.693,5.225,3.609,10.669,6.889,15.131c2.102,2.859,5.876,4.578,7.863,0.521
							c0.629-1.284,0.797-2.742,0.856-4.17c0.27-6.57-0.393-12.778-1.642-19.243c-0.818-4.23-2.201-9.104-5.867-11.783
							C136.241,264.545,134.207,264.419,132.497,265.171z"/>
						<path style="fill:#FFC045;" d="M147.756,309.23c0.799,2.271,0.206,4.548-1.326,5.088c-1.532,0.539-3.422-0.864-4.221-3.135
							c-0.799-2.271-0.206-4.548,1.326-5.088C145.067,305.556,146.957,306.959,147.756,309.23z"/>
						<path style="opacity:0.44;fill:#DE8500;" d="M162.82,261.436l-11.404,2.743c-1.356,0.326-2.714-0.505-3.04-1.861
							s0.505-2.714,1.861-3.04l8.773-2.11c1.19,0.924,2.272,2.046,3.186,3.33C162.41,260.809,162.623,261.121,162.82,261.436z"/>
						<path style="opacity:0.44;fill:#DE8500;" d="M167.791,273.41l-8.479,2.039c-1.356,0.326-2.714-0.505-3.04-1.861
							c-0.326-1.356,0.505-2.714,1.861-3.04l8.202-1.973C166.907,270.167,167.382,271.781,167.791,273.41z"/>
						<path style="opacity:0.44;fill:#DE8500;" d="M165.673,284.694l-10.135,2.437c-1.206,0.29-2.418-0.452-2.708-1.659
							c-0.29-1.206,0.451-2.418,1.658-2.708l10.135-2.437c1.206-0.29,2.418,0.452,2.708,1.659
							C167.62,283.192,166.879,284.404,165.673,284.694z"/>
						<path style="opacity:0.44;fill:#DE8500;" d="M146.314,293.454l-10.135,2.437c-1.206,0.29-2.418-0.452-2.708-1.659
							s0.451-2.418,1.658-2.708l10.135-2.437c1.206-0.29,2.418,0.452,2.708,1.659S147.52,293.164,146.314,293.454z"/>
						<path style="opacity:0.44;fill:#DE8500;" d="M164.164,295.643l-10.135,2.437c-1.206,0.29-2.418-0.452-2.708-1.659
							s0.451-2.418,1.658-2.708l10.135-2.437c1.206-0.29,2.418,0.452,2.708,1.659C166.111,294.141,165.37,295.353,164.164,295.643z"
							/>
						<path style="opacity:0.44;fill:#DE8500;" d="M154.591,309.757l-10.133,2.437c-1.206,0.29-2.418-0.452-2.708-1.659
							c-0.29-1.206,0.451-2.418,1.658-2.708l10.133-2.437c1.206-0.29,2.418,0.452,2.708,1.659S155.797,309.467,154.591,309.757z"/>
						<path style="opacity:0.44;fill:#DE8500;" d="M147.253,279.871l-13.332,3.206c-1.206,0.29-2.418-0.452-2.708-1.659
							c-0.29-1.206,0.451-2.418,1.658-2.708l13.332-3.206c1.206-0.29,2.418,0.452,2.708,1.659
							C149.201,278.368,148.459,279.581,147.253,279.871z"/>
						<path style="opacity:0.44;fill:#DE8500;" d="M134.294,268.297c0.287,1.193-0.458,2.409-1.65,2.695l-7.842,1.886
							c0.018-1.145,0.102-2.306,0.276-3.454c0.069-0.431,0.138-0.863,0.244-1.286l6.274-1.509
							C132.787,266.343,134.003,267.088,134.294,268.297z"/>
						<path style="opacity:0.44;fill:#DE8500;" d="M140.558,302.462c0.291,1.209-0.438,2.421-1.646,2.712l-4.509,1.085
							c-0.624-1.371-1.255-2.775-1.833-4.174l5.293-1.273C139.071,300.521,140.267,301.254,140.558,302.462z"/>
						<path style="opacity:0.44;fill:#DE8500;" d="M170.719,300.031c0.056,1.525,0.079,3.057,0.085,4.594l-6.519,1.568
							c-1.209,0.291-2.421-0.437-2.712-1.646c-0.291-1.209,0.454-2.425,1.663-2.716L170.719,300.031z"/>
						<path style="opacity:0.44;fill:#DE8500;" d="M170.634,312.253c-0.08,1.678-0.188,3.243-0.352,4.716l-10.162,2.444
							c-1.209,0.291-2.425-0.454-2.716-1.663c-0.291-1.209,0.454-2.425,1.663-2.716L170.634,312.253z"/>
						<path style="opacity:0.44;fill:#DE8500;" d="M169.463,322.835c-0.318,1.839-0.708,3.454-1.124,4.885l-3.774,0.908
							c-1.209,0.291-2.421-0.437-2.712-1.646c-0.291-1.209,0.454-2.425,1.663-2.716L169.463,322.835z"/>
						<path style="opacity:0.44;fill:#DE8500;" d="M154.728,323.009c0.287,1.193-0.458,2.409-1.667,2.7l-6.797,1.634
							c-0.89-1.186-1.795-2.506-2.732-3.958l8.479-2.039C153.221,321.055,154.437,321.8,154.728,323.009z"/>
					</g>
					<g>
						<path style="fill:#5AA815;" d="M227.458,187.226c0,3.743-3.025,6.768-6.768,6.768c-1.397,0-2.705-0.423-3.782-1.154
							c-1.807-1.218-2.987-3.269-2.987-5.615c0-3.743,3.025-6.768,6.768-6.768c0.731,0,1.449,0.115,2.102,0.333
							c0,0,0,0.013,0.013,0.013C225.509,181.689,227.458,184.227,227.458,187.226z"/>
						<path style="fill:#6AC718;" d="M222.183,185.945c0,1.55-1.253,2.803-2.803,2.803c-0.579,0-1.12-0.175-1.566-0.478
							c-0.748-0.504-1.237-1.354-1.237-2.325c0-1.55,1.253-2.803,2.803-2.803c0.303,0,0.6,0.048,0.87,0.138c0,0,0,0.005,0.005,0.005
							C221.376,183.652,222.183,184.703,222.183,185.945z"/>
						<path style="fill:#529517;" d="M227.458,187.226c0,3.743-3.025,6.768-6.768,6.768c-1.397,0-2.705-0.423-3.782-1.154
							c0.667,0.231,1.372,0.346,2.115,0.346c3.73,0,6.769-3.025,6.769-6.768c0-2.333-1.192-4.397-2.987-5.615
							C225.509,181.689,227.458,184.227,227.458,187.226z"/>
					</g>
					<g>
						<path style="fill:#5AA815;" d="M281.318,146.083c-2.091,4.243-7.21,5.981-11.453,3.89c-1.584-0.781-2.829-1.99-3.642-3.42
							c-1.368-2.39-1.559-5.374-0.249-8.032c2.091-4.242,7.21-5.981,11.453-3.89c0.828,0.408,1.577,0.94,2.197,1.552
							c0,0-0.007,0.014,0.007,0.022C282.203,138.718,282.994,142.683,281.318,146.083z"/>
						<path style="fill:#6AC718;" d="M276.055,141.684c-0.866,1.757-2.986,2.477-4.742,1.611c-0.656-0.323-1.172-0.824-1.508-1.416
							c-0.567-0.99-0.646-2.225-0.103-3.326c0.866-1.757,2.985-2.477,4.742-1.611c0.343,0.169,0.653,0.389,0.91,0.643
							c0,0-0.003,0.006,0.003,0.009C276.422,138.635,276.749,140.276,276.055,141.684z"/>
						<path style="fill:#529517;" d="M281.318,146.083c-2.091,4.243-7.21,5.981-11.453,3.89c-1.584-0.781-2.829-1.99-3.642-3.42
							c0.626,0.634,1.361,1.159,2.204,1.574c4.228,2.084,9.361,0.352,11.453-3.89c1.303-2.644,1.105-5.65-0.249-8.032
							C282.203,138.718,282.994,142.683,281.318,146.083z"/>
					</g>
					<g>
						<path style="fill:#5AA815;" d="M252.029,253.984c0,2.554-2.064,4.619-4.619,4.619c-0.954,0-1.846-0.289-2.581-0.787
							c-1.233-0.831-2.038-2.23-2.038-3.831c0-2.554,2.064-4.619,4.619-4.619c0.499,0,0.988,0.079,1.434,0.228
							c0,0,0,0.009,0.009,0.009C250.699,250.205,252.029,251.937,252.029,253.984z"/>
						<path style="fill:#6AC718;" d="M248.429,253.109c0,1.058-0.855,1.912-1.912,1.912c-0.395,0-0.764-0.12-1.069-0.326
							c-0.511-0.344-0.844-0.924-0.844-1.586c0-1.058,0.855-1.912,1.912-1.912c0.206,0,0.409,0.033,0.594,0.094
							c0,0,0,0.004,0.004,0.004C247.879,251.545,248.429,252.262,248.429,253.109z"/>
						<path style="fill:#529517;" d="M252.029,253.984c0,2.554-2.064,4.619-4.619,4.619c-0.954,0-1.846-0.289-2.581-0.787
							c0.455,0.158,0.936,0.236,1.443,0.236c2.546,0,4.619-2.064,4.619-4.618c0-1.592-0.814-3-2.038-3.831
							C250.699,250.205,252.029,251.937,252.029,253.984z"/>
					</g>
					<g>
						<path style="fill:#5AA815;" d="M337.376,213.702c0,2.554-2.064,4.619-4.619,4.619c-0.953,0-1.846-0.289-2.58-0.787
							c-1.233-0.831-2.038-2.231-2.038-3.831c0-2.554,2.064-4.619,4.618-4.619c0.499,0,0.988,0.079,1.435,0.227
							c0,0,0,0.009,0.009,0.009C336.046,209.923,337.376,211.655,337.376,213.702z"/>
						<path style="fill:#6AC718;" d="M333.777,212.827c0,1.058-0.855,1.912-1.912,1.912c-0.395,0-0.764-0.12-1.068-0.326
							c-0.511-0.344-0.844-0.924-0.844-1.586c0-1.058,0.855-1.912,1.912-1.912c0.206,0,0.409,0.033,0.594,0.094
							c0,0,0,0.004,0.004,0.004C333.226,211.263,333.777,211.98,333.777,212.827z"/>
						<path style="fill:#529517;" d="M337.376,213.702c0,2.554-2.064,4.619-4.619,4.619c-0.953,0-1.846-0.289-2.58-0.787
							c0.455,0.158,0.936,0.236,1.443,0.236c2.546,0,4.619-2.064,4.619-4.619c0-1.592-0.814-3-2.038-3.831
							C336.046,209.923,337.376,211.655,337.376,213.702z"/>
					</g>
					<g>
						<path style="fill:#5AA815;" d="M253.389,121.837c0,2.554-2.064,4.619-4.618,4.619c-0.953,0-1.846-0.289-2.58-0.787
							c-1.233-0.831-2.038-2.231-2.038-3.831c0-2.554,2.064-4.618,4.619-4.618c0.499,0,0.988,0.079,1.435,0.227
							c0,0,0,0.009,0.009,0.009C252.059,118.058,253.389,119.79,253.389,121.837z"/>
						<path style="fill:#6AC718;" d="M249.789,120.963c0,1.058-0.855,1.912-1.912,1.912c-0.395,0-0.764-0.119-1.068-0.326
							c-0.511-0.344-0.844-0.924-0.844-1.586c0-1.058,0.855-1.912,1.912-1.912c0.206,0,0.409,0.033,0.594,0.094
							c0,0,0,0.004,0.004,0.004C249.239,119.398,249.789,120.115,249.789,120.963z"/>
						<path style="fill:#529517;" d="M253.389,121.837c0,2.554-2.064,4.619-4.618,4.619c-0.953,0-1.846-0.289-2.58-0.787
							c0.455,0.157,0.936,0.236,1.443,0.236c2.546,0,4.619-2.064,4.619-4.618c0-1.592-0.813-3-2.038-3.831
							C252.059,118.058,253.389,119.79,253.389,121.837z"/>
					</g>
					<g>
						
							<ellipse transform="matrix(0.4168 -0.909 0.909 0.4168 -0.3071 306.435)" style="fill:#E82200;" cx="238.665" cy="153.457" rx="14.294" ry="14.294"/>
						
							<ellipse transform="matrix(0.8726 -0.4884 0.4884 0.8726 -44.5467 136.0983)" style="fill:#FF531B;" cx="238.662" cy="153.457" rx="12.13" ry="12.13"/>
						<g>
							<path style="fill:#DF2A00;" d="M238.556,157.52c-1.565-0.042-3.032-0.988-3.66-2.531c-0.628-1.543-0.237-3.245,0.854-4.367
								l-2.351-5.78c-4.157,2.534-5.992,7.768-4.099,12.423c1.893,4.655,6.861,7.123,11.607,6.035L238.556,157.52z"/>
							<path style="fill:#DF2A00;" d="M236.418,143.613l2.351,5.78c1.565,0.042,3.032,0.989,3.66,2.531
								c0.628,1.543,0.237,3.245-0.854,4.367l2.351,5.78c4.157-2.534,5.992-7.768,4.099-12.423
								C246.131,144.993,241.163,142.526,236.418,143.613z"/>
						</g>
						<g>
							<path style="fill:#F99600;" d="M232.604,157.038c0.109-0.082,0.887-0.686,1.172-0.898c0.073-0.055,0.148-0.111,0.201-0.185
								c0.08-0.112,0.103-0.259,0.063-0.391c-0.041-0.132-0.142-0.24-0.271-0.288c-0.086-0.032-0.179-0.036-0.27-0.04
								c-0.355-0.016-1.338-0.078-1.474-0.085c-0.203-0.01-0.405-0.002-0.599,0.058c-0.585,0.18-0.913,0.8-0.733,1.385
								c0.18,0.585,0.8,0.913,1.385,0.733C232.269,157.268,232.442,157.16,232.604,157.038z"/>
							<path style="fill:#F99600;" d="M235.671,158.004c0.005-0.138-0.057-0.273-0.163-0.361c-0.106-0.087-0.251-0.122-0.385-0.091
								c-0.089,0.021-0.169,0.068-0.248,0.115c-0.305,0.182-1.16,0.671-1.277,0.741c-0.174,0.104-0.339,0.222-0.468,0.378
								c-0.389,0.472-0.322,1.171,0.151,1.56c0.473,0.389,1.171,0.322,1.56-0.151c0.129-0.156,0.213-0.341,0.282-0.532
								c0.046-0.129,0.363-1.061,0.483-1.395C235.636,158.184,235.667,158.096,235.671,158.004z"/>
							<path style="fill:#F99600;" d="M237.365,159.081c-0.068,0.061-0.115,0.142-0.161,0.221c-0.178,0.308-0.687,1.15-0.756,1.268
								c-0.102,0.175-0.189,0.359-0.225,0.558c-0.111,0.602,0.288,1.18,0.89,1.29c0.602,0.111,1.18-0.288,1.29-0.89
								c0.037-0.199,0.021-0.402-0.012-0.602c-0.022-0.135-0.198-1.103-0.256-1.454c-0.015-0.09-0.03-0.182-0.071-0.264
								c-0.063-0.123-0.182-0.211-0.318-0.236C237.61,158.948,237.467,158.988,237.365,159.081z"/>
							<path style="fill:#F99600;" d="M230.979,153.501c0.201,0.022,0.402-0.008,0.599-0.056c0.133-0.032,1.086-0.278,1.432-0.361
								c0.089-0.021,0.18-0.043,0.258-0.09c0.118-0.071,0.197-0.197,0.212-0.334c0.015-0.137-0.035-0.277-0.135-0.372
								c-0.066-0.063-0.15-0.104-0.232-0.144c-0.32-0.156-1.197-0.602-1.32-0.662c-0.182-0.089-0.372-0.162-0.573-0.184
								c-0.608-0.067-1.156,0.372-1.223,0.981C229.932,152.887,230.371,153.434,230.979,153.501z"/>
							<path style="fill:#F99600;" d="M232.112,149.908c0.132,0.036,1.084,0.285,1.427,0.381c0.088,0.025,0.178,0.049,0.269,0.046
								c0.138-0.005,0.268-0.076,0.348-0.189c0.08-0.112,0.104-0.259,0.063-0.391c-0.027-0.087-0.08-0.164-0.133-0.239
								c-0.204-0.291-0.754-1.108-0.832-1.22c-0.116-0.166-0.246-0.322-0.411-0.439c-0.499-0.354-1.191-0.236-1.545,0.264
								c-0.354,0.499-0.236,1.191,0.264,1.545C231.726,149.783,231.916,149.854,232.112,149.908z"/>
						</g>
						<g>
							<path style="fill:#F99600;" d="M246.634,150.109c0.28,0.545,0.065,1.213-0.48,1.492c-0.18,0.092-0.379,0.136-0.58,0.162
								c-0.135,0.018-1.114,0.128-1.466,0.174c-0.091,0.012-0.183,0.024-0.273,0.008c-0.136-0.024-0.255-0.114-0.318-0.236
								c-0.063-0.122-0.066-0.271-0.007-0.396c0.039-0.083,0.103-0.151,0.165-0.217c0.243-0.26,0.903-0.99,0.996-1.09
								c0.138-0.148,0.289-0.284,0.469-0.377C245.687,149.35,246.355,149.564,246.634,150.109z"/>
							<path style="fill:#F99600;" d="M247.4,154.605c-0.067,0.608-0.614,1.048-1.222,0.981c-0.201-0.022-0.391-0.095-0.573-0.184
								c-0.123-0.06-1-0.507-1.32-0.662c-0.082-0.04-0.166-0.081-0.232-0.144c-0.1-0.095-0.15-0.235-0.135-0.372
								c0.015-0.137,0.094-0.263,0.213-0.334c0.078-0.047,0.169-0.069,0.258-0.09c0.346-0.083,1.299-0.329,1.432-0.361
								c0.197-0.048,0.398-0.078,0.599-0.056C247.028,153.449,247.467,153.996,247.4,154.605z"/>
							<path style="fill:#F99600;" d="M246.101,158.762c-0.354,0.499-1.046,0.617-1.545,0.264c-0.165-0.117-0.295-0.273-0.411-0.439
								c-0.078-0.112-0.628-0.928-0.832-1.22c-0.052-0.075-0.106-0.152-0.133-0.239c-0.041-0.132-0.017-0.279,0.063-0.391
								c0.079-0.112,0.21-0.184,0.348-0.189c0.091-0.003,0.181,0.022,0.269,0.046c0.343,0.096,1.295,0.344,1.427,0.381
								c0.195,0.054,0.386,0.125,0.551,0.242C246.337,157.571,246.455,158.263,246.101,158.762z"/>
							<path style="fill:#F99600;" d="M244.118,146.536c-0.473-0.389-1.171-0.322-1.56,0.151c-0.129,0.156-0.213,0.341-0.282,0.532
								c-0.046,0.128-0.362,1.061-0.483,1.395c-0.031,0.086-0.062,0.174-0.066,0.265c-0.005,0.138,0.057,0.273,0.163,0.361
								c0.106,0.087,0.251,0.122,0.385,0.091c0.089-0.021,0.169-0.068,0.248-0.115c0.305-0.182,1.16-0.672,1.277-0.741
								c0.174-0.104,0.339-0.222,0.468-0.378C244.658,147.623,244.591,146.925,244.118,146.536z"/>
							<path style="fill:#F99600;" d="M240.286,144.465c-0.602-0.111-1.18,0.288-1.29,0.89c-0.037,0.199-0.021,0.402,0.012,0.602
								c0.022,0.135,0.198,1.103,0.256,1.454c0.015,0.09,0.03,0.182,0.072,0.264c0.063,0.123,0.182,0.211,0.318,0.236
								c0.135,0.025,0.279-0.015,0.381-0.108c0.068-0.061,0.115-0.142,0.161-0.221c0.178-0.308,0.687-1.15,0.756-1.268
								c0.102-0.175,0.189-0.359,0.225-0.558C241.286,145.153,240.888,144.575,240.286,144.465z"/>
						</g>
						<path style="opacity:0.2;fill:#E82200;" d="M251.906,148.071c2.974,7.311-0.544,15.653-7.856,18.626l-10.771-26.482
							C240.591,137.242,248.932,140.76,251.906,148.071z"/>
					</g>
					<g>
						
							<ellipse transform="matrix(0.139 -0.9903 0.9903 0.139 12.9417 287.7412)" style="fill:#E82200;" cx="171.949" cy="136.428" rx="11.637" ry="11.637"/>
						<circle style="fill:#FF531B;" cx="171.947" cy="136.427" r="9.876"/>
						<g>
							<path style="fill:#DF2A00;" d="M170.025,139.12c-1.037-0.741-1.596-2.048-1.317-3.375s1.318-2.298,2.565-2.558l1.046-4.971
								c-3.959-0.183-7.582,2.513-8.424,6.517c-0.842,4.004,1.387,7.931,5.084,9.359L170.025,139.12z"/>
							<path style="fill:#DF2A00;" d="M174.915,128.762l-1.046,4.971c1.037,0.741,1.596,2.048,1.317,3.375
								c-0.279,1.327-1.318,2.298-2.565,2.558l-1.046,4.971c3.959,0.183,7.582-2.513,8.424-6.517
								C180.841,134.117,178.613,130.189,174.915,128.762z"/>
						</g>
						<g>
							<path style="fill:#F99600;" d="M166.227,136.085c0.111-0.006,0.911-0.059,1.2-0.073c0.074-0.003,0.15-0.007,0.22-0.033
								c0.105-0.039,0.188-0.128,0.22-0.235c0.033-0.107,0.013-0.227-0.052-0.318c-0.044-0.061-0.104-0.106-0.164-0.15
								c-0.232-0.173-0.867-0.662-0.956-0.729c-0.132-0.099-0.273-0.186-0.431-0.234c-0.477-0.145-0.981,0.124-1.126,0.601
								c-0.145,0.477,0.124,0.981,0.601,1.126C165.897,136.087,166.063,136.093,166.227,136.085z"/>
							<path style="fill:#F99600;" d="M167.857,138.133c0.066-0.091,0.086-0.21,0.054-0.318s-0.114-0.197-0.219-0.237
								c-0.07-0.027-0.145-0.031-0.22-0.035c-0.289-0.016-1.088-0.075-1.199-0.081c-0.165-0.01-0.33-0.005-0.488,0.042
								c-0.478,0.142-0.75,0.644-0.609,1.121c0.142,0.478,0.644,0.75,1.121,0.609c0.158-0.047,0.299-0.133,0.432-0.231
								c0.09-0.066,0.728-0.551,0.961-0.722C167.752,138.238,167.813,138.193,167.857,138.133z"/>
							<path style="fill:#F99600;" d="M168.51,139.631c-0.074,0.011-0.142,0.044-0.209,0.076c-0.261,0.126-0.988,0.463-1.088,0.511
								c-0.149,0.072-0.291,0.156-0.406,0.274c-0.349,0.356-0.343,0.927,0.013,1.276c0.356,0.349,0.927,0.343,1.276-0.013
								c0.115-0.118,0.197-0.262,0.266-0.412c0.046-0.101,0.369-0.835,0.49-1.098c0.031-0.068,0.063-0.137,0.072-0.211
								c0.014-0.111-0.027-0.225-0.107-0.304C168.736,139.653,168.621,139.615,168.51,139.631z"/>
							<path style="fill:#F99600;" d="M166.742,132.958c0.126,0.107,0.275,0.178,0.43,0.235c0.104,0.039,0.859,0.307,1.13,0.409
								c0.07,0.026,0.141,0.053,0.215,0.056c0.112,0.006,0.223-0.043,0.296-0.129c0.072-0.086,0.102-0.203,0.078-0.313
								c-0.016-0.073-0.054-0.139-0.091-0.203c-0.145-0.251-0.534-0.952-0.589-1.048c-0.082-0.143-0.177-0.279-0.303-0.385
								c-0.38-0.322-0.95-0.275-1.272,0.105C166.315,132.066,166.362,132.635,166.742,132.958z"/>
							<path style="fill:#F99600;" d="M169.143,131.049c0.072,0.085,0.602,0.686,0.789,0.906c0.048,0.057,0.098,0.114,0.161,0.154
								c0.095,0.059,0.216,0.071,0.321,0.031c0.105-0.04,0.188-0.128,0.22-0.235c0.021-0.071,0.02-0.147,0.019-0.222
								c-0.005-0.289-0.004-1.091-0.006-1.202c-0.003-0.165-0.019-0.33-0.078-0.484c-0.176-0.466-0.696-0.702-1.163-0.526
								c-0.466,0.176-0.702,0.696-0.526,1.163C168.939,130.788,169.035,130.923,169.143,131.049z"/>
						</g>
						<g>
							<path style="fill:#F99600;" d="M178.852,137.798c-0.059,0.495-0.509,0.848-1.003,0.788c-0.164-0.02-0.317-0.081-0.465-0.155
								c-0.099-0.05-0.81-0.421-1.069-0.55c-0.067-0.033-0.134-0.067-0.188-0.119c-0.081-0.078-0.12-0.193-0.107-0.304
								c0.013-0.111,0.079-0.213,0.176-0.27c0.064-0.038,0.138-0.055,0.211-0.071c0.282-0.064,1.06-0.257,1.169-0.282
								c0.161-0.037,0.324-0.06,0.488-0.04C178.558,136.854,178.911,137.303,178.852,137.798z"/>
							<path style="fill:#F99600;" d="M177.321,141.181c-0.322,0.38-0.891,0.427-1.272,0.105c-0.126-0.107-0.22-0.242-0.303-0.385
								c-0.055-0.096-0.444-0.797-0.589-1.048c-0.037-0.064-0.075-0.13-0.091-0.203c-0.024-0.11,0.006-0.227,0.078-0.313
								c0.072-0.086,0.183-0.134,0.296-0.129c0.074,0.004,0.145,0.03,0.215,0.057c0.271,0.102,1.026,0.37,1.13,0.409
								c0.155,0.058,0.304,0.129,0.43,0.235C177.596,140.231,177.643,140.801,177.321,141.181z"/>
							<path style="fill:#F99600;" d="M174.551,143.395c-0.466,0.176-0.987-0.06-1.163-0.526c-0.058-0.154-0.075-0.319-0.077-0.484
								c-0.002-0.111-0.001-0.913-0.006-1.202c-0.001-0.074-0.002-0.15,0.019-0.222c0.032-0.108,0.115-0.196,0.22-0.235
								c0.105-0.04,0.225-0.028,0.321,0.031c0.063,0.039,0.112,0.097,0.161,0.154c0.188,0.221,0.717,0.822,0.79,0.906
								c0.107,0.126,0.203,0.26,0.261,0.415C175.252,142.699,175.017,143.219,174.551,143.395z"/>
							<path style="fill:#F99600;" d="M178.781,134.241c-0.142-0.478-0.644-0.75-1.122-0.609c-0.158,0.047-0.299,0.133-0.432,0.231
								c-0.09,0.066-0.728,0.551-0.961,0.722c-0.06,0.044-0.121,0.089-0.165,0.149c-0.066,0.091-0.086,0.21-0.054,0.318
								c0.032,0.107,0.114,0.197,0.219,0.237c0.07,0.027,0.145,0.031,0.22,0.035c0.289,0.016,1.088,0.075,1.199,0.081
								c0.165,0.009,0.33,0.005,0.488-0.042C178.65,135.221,178.923,134.719,178.781,134.241z"/>
							<path style="fill:#F99600;" d="M177.138,131.098c-0.356-0.349-0.927-0.343-1.276,0.013c-0.115,0.118-0.197,0.261-0.266,0.412
								c-0.046,0.101-0.369,0.835-0.49,1.098c-0.031,0.068-0.063,0.137-0.072,0.211c-0.014,0.111,0.027,0.226,0.107,0.304
								c0.08,0.078,0.195,0.117,0.306,0.101c0.074-0.011,0.142-0.044,0.209-0.076c0.26-0.126,0.988-0.463,1.088-0.512
								c0.149-0.072,0.291-0.156,0.406-0.274C177.499,132.018,177.494,131.447,177.138,131.098z"/>
						</g>
						<path style="opacity:0.2;fill:#E82200;" d="M183.337,138.824c-1.323,6.288-7.496,10.315-13.784,8.992l4.792-22.776
							C180.633,126.363,184.66,132.536,183.337,138.824z"/>
					</g>
					<g>
						<path style="fill:#407B19;" d="M334.989,328.11c-10.857,14.514-27.002,12.304-30.125,11.715c0,0-0.177-0.033-0.367-0.069
							l-0.367-0.069c-3.123-0.589-18.963-4.417-23.783-21.889c-2.094-7.635-1.282-16.032,2.287-23.633
							c15.242-32.409,28.635-37.396,37.198-35.872l0.038,0.007c8.601,1.741,19.224,11.287,21.603,46.969
							C342.026,313.648,339.722,321.763,334.989,328.11z"/>
						<path style="fill:#F3F570;" d="M331.9,325.794c-10.458,13.999-26.69,10.163-26.69,10.163s-16.5-2.342-21.137-19.19
							c-1.918-6.974-1.025-14.412,2.058-20.966c5.769-12.253,18.958-36.211,33.02-33.714c14.017,2.802,17.567,29.92,18.473,43.433
							C338.094,312.744,336.227,319.999,331.9,325.794z"/>
						<path style="fill:#EADB4F;" d="M331.9,325.794c-10.458,13.999-26.69,10.163-26.69,10.163l13.942-73.87
							c14.017,2.802,17.567,29.92,18.473,43.433C338.094,312.744,336.227,319.999,331.9,325.794z"/>
						
							<ellipse transform="matrix(0.4759 -0.8795 0.8795 0.4759 -112.64 436.1658)" style="fill:#EADB4F;" cx="309.625" cy="312.588" rx="18.382" ry="18.382"/>
						<path style="fill:#864A05;" d="M322.92,315.098c-1.386,7.342-8.461,12.171-15.804,10.785
							c-7.342-1.386-12.171-8.461-10.785-15.804c1.386-7.342,8.461-12.171,15.803-10.785
							C319.477,300.68,324.305,307.755,322.92,315.098z"/>
						<path style="fill:#A6601C;" d="M308.514,307.638c-0.378,2.004-2.31,3.323-4.314,2.944c-2.004-0.378-3.322-2.31-2.944-4.314
							c0.378-2.004,2.31-3.323,4.314-2.944C307.574,303.702,308.892,305.634,308.514,307.638z"/>
					</g>
					<g>
						<path style="fill:#48A800;" d="M273.447,180.579l-3.341,16.544l0,0c-0.877-0.177-1.445-1.032-1.268-1.909l0.89-4.408
							c0.09-0.445-0.155-0.893-0.581-1.047c-1.897-0.686-6.768-3.166-6.984-10.602c0,0,3.895,1.858,6.245,5.57
							C268.408,184.726,269.486,181.776,273.447,180.579z"/>
						<path style="fill:#4DB500;" d="M268.882,179.312c0,0-0.907-3.524-4.214-4.88c0,0-1.867,1.691-1.81,5.102
							c1.225,0.714,3.81,2.443,5.55,5.193c0,0,1.078-2.951,5.039-4.148l1.55-7.677C274.998,172.902,270.441,174.323,268.882,179.312
							z"/>
						<path style="fill:#52C200;" d="M270.759,171.495c0,0-0.234-1.756-2.605-3.2c0,0-3.418,2.229-3.029,6.351
							c2.931,1.478,3.757,4.665,3.757,4.665c1.559-4.989,6.116-6.41,6.116-6.41l1.247-6.176
							C276.245,166.726,272.002,167.613,270.759,171.495z"/>
						<path style="fill:#58D100;" d="M273.952,165.631c-0.403-0.563-1.183-0.962-1.183-0.962c-2.374,1.169-3.508,3.166-3.93,4.098
							c1.729,1.327,1.92,2.728,1.92,2.728c1.243-3.882,5.486-4.769,5.486-4.769l0.884-4.379
							C275.109,163.144,273.952,165.631,273.952,165.631z"/>
						<path style="fill:#46A300;" d="M273.447,180.579l-3.341,16.544l0,0c0.877,0.177,1.732-0.39,1.909-1.268l0.89-4.408
							c0.09-0.445,0.489-0.763,0.942-0.74c2.015,0.104,7.466-0.291,10.551-7.061c0,0-4.311,0.201-7.917,2.71
							C276.482,186.357,276.633,183.219,273.447,180.579z"/>
						<path style="fill:#4BB000;" d="M278.147,181.183c0,0,2.203-2.895,5.778-2.862c0,0,1.065,2.283-0.313,5.404
							c-1.406,0.182-4.46,0.773-7.13,2.632c0,0,0.152-3.138-3.034-5.778l1.55-7.677
							C274.998,172.902,278.646,175.981,278.147,181.183z"/>
						<path style="fill:#50BD00;" d="M279.45,173.25c0,0,0.897-1.528,3.643-1.938c0,0,2.285,3.381,0.326,7.029
							c-3.274,0.225-5.273,2.842-5.273,2.842c0.5-5.202-3.149-8.281-3.149-8.281l1.247-6.176
							C276.245,166.726,279.811,169.191,279.45,173.25z"/>
						<path style="fill:#56CC00;" d="M278.783,166.607c0.59-0.363,1.464-0.427,1.464-0.427c1.734,1.999,2.005,4.279,2.031,5.302
							c-2.108,0.553-2.828,1.769-2.828,1.769c0.361-4.06-3.205-6.525-3.205-6.525l0.884-4.379
							C278.683,163.866,278.783,166.607,278.783,166.607z"/>
					</g>
					<g>
						<path style="fill:#48A800;" d="M341.199,161.254l5.11,11.352l0,0c-0.602,0.271-1.309,0.003-1.58-0.599l-1.362-3.024
							c-0.137-0.305-0.477-0.469-0.799-0.378c-1.432,0.405-5.417,1.013-8.744-3.351c0,0,3.133-0.561,6.137,0.654
							C339.963,165.906,339.34,163.674,341.199,161.254z"/>
						<path style="fill:#4DB500;" d="M337.919,162.458c0,0-2.059-1.722-4.624-1.113c0,0-0.392,1.816,1.109,3.836
							c1.041-0.099,3.334-0.174,5.559,0.726c0,0-0.622-2.232,1.237-4.652l-2.371-5.267
							C338.828,155.986,336.708,158.798,337.919,162.458z"/>
						<path style="fill:#52C200;" d="M335.683,156.965c0,0-0.895-0.952-2.937-0.797c0,0-1.09,2.806,0.916,5.109
							c2.392-0.374,4.257,1.181,4.257,1.181c-1.211-3.66,0.909-6.471,0.909-6.471l-1.908-4.238
							C336.92,151.749,334.759,154.105,335.683,156.965z"/>
						<path style="fill:#58D100;" d="M335.076,152.078c-0.484-0.165-1.123-0.068-1.123-0.068c-0.92,1.721-0.742,3.406-0.593,4.146
							c1.607,0.052,2.323,0.809,2.323,0.809c-0.924-2.861,1.237-5.217,1.237-5.217l-1.353-3.004
							C334.699,150.091,335.076,152.078,335.076,152.078z"/>
						<path style="fill:#46A300;" d="M341.199,161.254l5.11,11.352l0,0c0.602-0.271,0.87-0.979,0.599-1.58L345.547,168
							c-0.137-0.305-0.035-0.668,0.247-0.848c1.252-0.804,4.35-3.384,3.288-8.768c0,0-2.497,1.974-3.58,5.028
							C345.502,163.412,344.244,161.467,341.199,161.254z"/>
						<path style="fill:#4BB000;" d="M344.276,159.596c0,0,0.076-2.683,2.232-4.2c0,0,1.62,0.911,2.136,3.373
							c-0.764,0.714-2.34,2.381-3.142,4.643c0,0-1.258-1.946-4.303-2.158l-2.371-5.267
							C338.828,155.986,342.338,156.263,344.276,159.596z"/>
						<path style="fill:#50BD00;" d="M341.646,154.281c0,0-0.119-1.301,1.35-2.727c0,0,2.823,1.044,3.218,4.072
							c-1.866,1.542-1.938,3.97-1.938,3.97c-1.937-3.333-5.448-3.609-5.448-3.609l-1.908-4.238
							C336.92,151.749,340.117,151.693,341.646,154.281z"/>
						<path style="fill:#56CC00;" d="M338.39,150.586c0.197-0.471,0.693-0.886,0.693-0.886c1.899,0.452,3.041,1.703,3.497,2.304
							c-1.026,1.238-0.934,2.276-0.934,2.276c-1.529-2.588-4.726-2.532-4.726-2.532l-1.353-3.004
							C337.151,148.987,338.39,150.586,338.39,150.586z"/>
					</g>
					<g>
						<path style="fill:#48A800;" d="M122.269,193.251l-8.199,9.367l0,0c-0.497-0.435-0.547-1.19-0.112-1.686l2.185-2.496
							c0.22-0.252,0.228-0.629,0.011-0.883c-0.964-1.134-3.174-4.506-0.588-9.346c0,0,1.813,2.617,1.957,5.854
							C117.523,194.06,119.294,192.566,122.269,193.251z"/>
						<path style="fill:#4DB500;" d="M119.81,190.767c0,0,0.71-2.588-0.91-4.668c0,0-1.815,0.399-3.027,2.604
							c0.523,0.906,1.544,2.96,1.651,5.357c0,0,1.771-1.494,4.745-0.81l3.804-4.347C126.073,188.904,122.635,188.145,119.81,190.767
							z"/>
						<path style="fill:#52C200;" d="M123.875,186.451c0,0,0.494-1.21-0.496-3.003c0,0-3.005,0.175-4.265,2.957
							c1.335,2.019,0.696,4.363,0.696,4.363c2.825-2.623,6.263-1.863,6.263-1.863l3.061-3.497
							C129.134,185.407,126.092,184.421,123.875,186.451z"/>
						<path style="fill:#58D100;" d="M128.067,183.866c-0.051-0.508-0.405-1.049-0.405-1.049c-1.948-0.121-3.406,0.742-4.017,1.184
							c0.62,1.483,0.23,2.45,0.23,2.45c2.218-2.03,5.259-1.044,5.259-1.044l2.17-2.479
							C129.718,182.698,128.067,183.866,128.067,183.866z"/>
						<path style="fill:#46A300;" d="M122.269,193.251l-8.199,9.367l0,0c0.497,0.435,1.252,0.385,1.686-0.112l2.185-2.496
							c0.22-0.252,0.593-0.309,0.874-0.128c1.252,0.805,4.886,2.549,9.341-0.655c0,0-2.834-1.45-6.061-1.165
							C122.095,198.061,123.341,196.108,122.269,193.251z"/>
						<path style="fill:#4BB000;" d="M125.055,195.359c0,0,2.471-1.047,4.748,0.284c0,0-0.155,1.852-2.18,3.345
							c-0.967-0.398-3.138-1.138-5.529-0.927c0,0,1.246-1.953,0.174-4.811l3.804-4.347
							C126.073,188.904,127.281,192.211,125.055,195.359z"/>
						<path style="fill:#50BD00;" d="M128.796,190.758c0,0,1.134-0.65,3.042,0.094c0,0,0.224,3.002-2.366,4.619
							c-2.178-1.056-4.417-0.112-4.417-0.112c2.226-3.148,1.018-6.455,1.018-6.455l3.061-3.497
							C129.134,185.407,130.514,188.291,128.796,190.758z"/>
						<path style="fill:#56CC00;" d="M130.802,186.26c0.511-0.016,1.094,0.262,1.094,0.262c0.378,1.915-0.284,3.474-0.642,4.138
							c-1.552-0.419-2.458,0.097-2.458,0.097c1.718-2.467,0.338-5.351,0.338-5.351l2.17-2.479
							C131.742,184.469,130.802,186.26,130.802,186.26z"/>
					</g>
					<g>
						<path style="fill:#EAE0D5;" d="M303.953,211.096c3.125,8.927-12.293,13.461-12.293,13.461s-8.815,3.147-14.203,0.606
							c-1.672-0.79-3.006-2.122-3.655-4.263c0,0-2.775-7.743,4.501-13.465c1.649-1.297,3.821-2.494,6.661-3.476
							C300.473,199.207,303.953,211.096,303.953,211.096z"/>
						<path style="fill:#D6C3B4;" d="M299.392,228.406c-1.56,1.104-3.726,1.925-4.862,2.318c-0.487,0.158-0.786,0.244-0.786,0.244
							s-3.358,1.22-6.074,1.25c-1.721,0.033-3.078-1.444-2.956-3.156l0.195-3.035c3.647-0.367,6.751-1.47,6.751-1.47
							s0.599-0.172,1.534-0.534c1.221-0.455,3.003-1.199,4.791-2.248l1.942,2.34C301.032,225.428,300.803,227.421,299.392,228.406z"
							/>
						<path style="fill:#E0CCBC;" d="M303.953,211.096c3.125,8.927-12.293,13.461-12.293,13.461s-8.815,3.147-14.203,0.606
							c3.677,0.442,7.462,0.066,10.953-1.14c3.008-1.037,6.381-2.718,8.02-5.591c1.24-2.193,0.75-4.888-0.416-7
							c-2.027-3.681-5.586-6.314-9.871-6.219c-2.741,0.061-5.386,0.991-7.84,2.222c1.649-1.297,3.821-2.494,6.661-3.476
							C300.473,199.207,303.953,211.096,303.953,211.096z"/>
						<path style="fill:#C7B5A7;" d="M299.392,228.406c-1.56,1.104-3.726,1.925-4.862,2.318c3.456-3.007,0.527-5.541-1.337-6.701
							c1.221-0.455,3.003-1.199,4.791-2.248l1.942,2.34C301.032,225.428,300.803,227.421,299.392,228.406z"/>
						<path style="fill:#F2E9DF;" d="M278.66,209.062c-1.786,1.388-3.486,3.916-3.713,6.216c-0.07,0.712,0.06,1.468,0.489,2.041
							c1.102,1.472,3.421,0.656,4.617-0.24c1.694-1.269,2.823-3.361,3.127-5.436c0.161-1.096,0.083-2.813-1.104-3.304
							C280.88,207.844,279.7,208.254,278.66,209.062z"/>
						<path style="fill:#FCFAF7;" d="M279.485,209.428c-1.121,0.871-2.188,2.458-2.33,3.902c-0.044,0.447,0.037,0.921,0.307,1.281
							c0.691,0.924,2.147,0.412,2.898-0.151c1.063-0.797,1.772-2.11,1.963-3.412c0.101-0.688,0.052-1.765-0.693-2.074
							C280.879,208.664,280.138,208.921,279.485,209.428z"/>
					</g>
					<g>
						<path style="fill:#EAE0D5;" d="M187.333,100.764c-0.527,5.932-10.547,4.527-10.547,4.527s-5.873-0.485-8.303-3.342
							c-0.754-0.887-1.173-1.998-0.989-3.394c0,0,0.42-5.161,6.079-6.554c1.282-0.315,2.839-0.438,4.723-0.264
							C188.425,93.042,187.333,100.764,187.333,100.764z"/>
						<path style="fill:#D6C3B4;" d="M180.221,109.507c-1.181,0.228-2.637,0.136-3.39,0.067c-0.32-0.036-0.514-0.064-0.514-0.064
							s-2.243-0.172-3.808-0.861c-0.995-0.428-1.39-1.628-0.876-2.578l0.9-1.69c2.187,0.737,4.254,0.91,4.254,0.91
							s0.388,0.057,1.019,0.092c0.818,0.056,2.033,0.092,3.331-0.045l0.506,1.846C181.935,108.225,181.286,109.309,180.221,109.507z
							"/>
						<path style="fill:#E0CCBC;" d="M187.333,100.764c-0.527,5.932-10.547,4.527-10.547,4.527s-5.873-0.485-8.303-3.342
							c1.994,1.209,4.262,1.976,6.578,2.191c1.995,0.187,4.366,0.098,6.052-1.123c1.281-0.936,1.7-2.608,1.579-4.123
							c-0.207-2.638-1.564-5.072-4.046-6.131c-1.588-0.677-3.347-0.831-5.074-0.762c1.282-0.315,2.839-0.438,4.723-0.264
							C188.425,93.042,187.333,100.764,187.333,100.764z"/>
						<path style="fill:#C7B5A7;" d="M180.221,109.507c-1.181,0.228-2.637,0.136-3.39,0.067c2.763-0.827,1.741-3.041,0.974-4.19
							c0.818,0.056,2.033,0.092,3.331-0.045l0.506,1.846C181.935,108.225,181.286,109.309,180.221,109.507z"/>
						<path style="fill:#F2E9DF;" d="M173.354,93.028c-1.385,0.332-3.016,1.341-3.744,2.601c-0.225,0.39-0.347,0.857-0.25,1.298
							c0.25,1.13,1.792,1.265,2.711,1.061c1.301-0.288,2.492-1.195,3.206-2.305c0.377-0.587,0.778-1.592,0.225-2.182
							C174.944,92.907,174.161,92.835,173.354,93.028z"/>
						<path style="fill:#FCFAF7;" d="M173.733,93.453c-0.869,0.208-1.893,0.841-2.35,1.632c-0.141,0.245-0.218,0.538-0.157,0.814
							c0.157,0.709,1.124,0.794,1.701,0.666c0.817-0.181,1.564-0.75,2.012-1.447c0.237-0.368,0.488-0.999,0.141-1.369
							C174.73,93.376,174.239,93.331,173.733,93.453z"/>
					</g>
					<g>
						<path style="fill:#EAE0D5;" d="M300.288,111.393c2.672,7.633-10.511,11.51-10.511,11.51s-7.537,2.691-12.145,0.518
							c-1.43-0.675-2.57-1.815-3.126-3.645c0,0-2.373-6.62,3.848-11.514c1.41-1.109,3.267-2.133,5.695-2.972
							C297.313,101.227,300.288,111.393,300.288,111.393z"/>
						<path style="fill:#D6C3B4;" d="M296.388,126.194c-1.333,0.944-3.186,1.646-4.157,1.982c-0.416,0.135-0.672,0.209-0.672,0.209
							s-2.871,1.044-5.194,1.069c-1.471,0.028-2.632-1.235-2.528-2.699l0.167-2.595c3.119-0.314,5.773-1.257,5.773-1.257
							s0.513-0.147,1.312-0.456c1.044-0.389,2.568-1.025,4.096-1.922l1.661,2.001C297.791,123.647,297.595,125.351,296.388,126.194z
							"/>
						<path style="fill:#E0CCBC;" d="M300.288,111.393c2.672,7.633-10.511,11.51-10.511,11.51s-7.537,2.691-12.145,0.518
							c3.144,0.378,6.38,0.056,9.365-0.975c2.572-0.886,5.456-2.324,6.858-4.78c1.061-1.875,0.642-4.179-0.356-5.986
							c-1.734-3.147-4.776-5.399-8.441-5.317c-2.344,0.052-4.606,0.847-6.704,1.9c1.41-1.109,3.267-2.133,5.695-2.972
							C297.313,101.227,300.288,111.393,300.288,111.393z"/>
						<path style="fill:#C7B5A7;" d="M296.388,126.194c-1.333,0.944-3.186,1.646-4.157,1.982c2.955-2.571,0.45-4.737-1.143-5.73
							c1.044-0.389,2.568-1.025,4.096-1.922l1.661,2.001C297.791,123.647,297.595,125.351,296.388,126.194z"/>
						<path style="fill:#F2E9DF;" d="M278.661,109.654c-1.527,1.187-2.981,3.349-3.175,5.315c-0.06,0.609,0.051,1.255,0.418,1.745
							c0.942,1.258,2.925,0.561,3.948-0.205c1.449-1.085,2.414-2.874,2.674-4.648c0.138-0.937,0.071-2.405-0.944-2.825
							C280.56,108.613,279.551,108.963,278.661,109.654z"/>
						<path style="fill:#FCFAF7;" d="M279.367,109.967c-0.959,0.745-1.871,2.102-1.993,3.336c-0.038,0.382,0.032,0.788,0.262,1.095
							c0.591,0.79,1.836,0.352,2.478-0.129c0.909-0.681,1.515-1.804,1.678-2.917c0.086-0.588,0.045-1.51-0.593-1.773
							C280.559,109.313,279.925,109.533,279.367,109.967z"/>
					</g>
					<g>
						<path style="fill:#EAE0D5;" d="M171.425,190.414c-5.596,7.625-18.053-2.529-18.053-2.529s-7.579-5.491-8.53-11.373
							c-0.294-1.826,0.051-3.68,1.449-5.425c0,0,4.817-6.666,13.651-3.901c2.002,0.627,4.218,1.742,6.633,3.528
							C179.264,180.822,171.425,190.414,171.425,190.414z"/>
						<path style="fill:#D6C3B4;" d="M154.569,196.439c-1.792-0.662-3.694-1.985-4.66-2.699c-0.406-0.312-0.646-0.511-0.646-0.511
							s-2.905-2.08-4.465-4.304c-1-1.4-0.549-3.355,0.932-4.223l2.613-1.555c2.365,2.801,5.03,4.738,5.03,4.738
							s0.48,0.397,1.308,0.964c1.066,0.749,2.686,1.799,4.563,2.68l-0.832,2.925C157.953,196.108,156.179,197.046,154.569,196.439z"
							/>
						<path style="fill:#E0CCBC;" d="M171.425,190.414c-5.596,7.625-18.053-2.529-18.053-2.529s-7.579-5.491-8.53-11.373
							c1.714,3.283,4.165,6.191,7.133,8.39c2.556,1.895,5.85,3.726,9.146,3.454c2.51-0.217,4.456-2.145,5.539-4.301
							c1.89-3.753,2.05-8.177-0.452-11.658c-1.6-2.227-3.863-3.882-6.266-5.211c2.002,0.627,4.218,1.742,6.633,3.528
							C179.264,180.822,171.425,190.414,171.425,190.414z"/>
						<path style="fill:#C7B5A7;" d="M154.569,196.439c-1.792-0.662-3.694-1.985-4.66-2.699c4.434,1.15,4.867-2.699,4.771-4.891
							c1.066,0.749,2.686,1.799,4.563,2.68l-0.832,2.925C157.953,196.108,156.179,197.046,154.569,196.439z"/>
						<path style="fill:#F2E9DF;" d="M158.802,168.402c-2.155-0.689-5.201-0.661-7.227,0.453c-0.627,0.345-1.177,0.879-1.407,1.557
							c-0.591,1.741,1.393,3.193,2.809,3.673c2.005,0.68,4.368,0.428,6.252-0.494c0.995-0.487,2.367-1.522,2.101-2.779
							C161.062,169.545,160.057,168.803,158.802,168.402z"/>
						<path style="fill:#FCFAF7;" d="M158.966,169.29c-1.352-0.432-3.264-0.415-4.536,0.284c-0.394,0.217-0.739,0.552-0.883,0.977
							c-0.371,1.092,0.874,2.004,1.763,2.305c1.258,0.427,2.742,0.269,3.924-0.31c0.624-0.306,1.486-0.955,1.319-1.744
							C160.385,170.007,159.754,169.541,158.966,169.29z"/>
					</g>
					<g>
						
							<ellipse transform="matrix(0.7405 -0.6721 0.6721 0.7405 -95.7291 186.0786)" style="fill:#A0562E;" cx="193.066" cy="216.987" rx="24.358" ry="24.358"/>
						<circle style="fill:#B56135;" cx="193.066" cy="216.987" r="21.32"/>
						
							<ellipse transform="matrix(0.7419 -0.6705 0.6705 0.7419 -95.6599 185.439)" style="fill:#B0D520;" cx="193.066" cy="216.987" rx="19.93" ry="19.93"/>
						<path style="fill:#DDF0A1;" d="M200.508,216.987c0,4.11-3.332,7.442-7.442,7.442c-4.11,0-7.442-3.332-7.442-7.442
							c0-4.11,3.332-7.442,7.442-7.442C197.176,209.546,200.508,212.877,200.508,216.987z"/>
						<path style="fill:#F2FFC7;" d="M194.297,216.987c0,0.68-0.551,1.231-1.231,1.231c-0.68,0-1.231-0.551-1.231-1.231
							c0-0.68,0.551-1.231,1.231-1.231C193.746,215.757,194.297,216.307,194.297,216.987z"/>
						<path style="fill:#577300;" d="M193.066,204.068c-0.685,0.049-1.231,0.389-1.231,1.087c0,0.115,0.019,0.223,0.05,0.327
							c0.031,0.103,0.275,0.665,0.275,0.665l0.906,2.091l0.906-2.091c0,0,0.243-0.562,0.275-0.665
							c0.032-0.103,0.05-0.212,0.05-0.327C194.297,204.457,193.751,204.117,193.066,204.068z"/>
						<path style="fill:#577300;" d="M188.647,204.847c-0.627,0.28-1.023,0.787-0.785,1.442c0.039,0.108,0.094,0.203,0.159,0.29
							c0.065,0.086,0.485,0.531,0.485,0.531l1.567,1.655l0.136-2.275c0,0,0.037-0.611,0.031-0.719
							c-0.006-0.108-0.025-0.216-0.065-0.324C189.937,204.792,189.308,204.659,188.647,204.847z"/>
						<path style="fill:#577300;" d="M184.762,207.09c-0.493,0.478-0.693,1.089-0.244,1.624c0.074,0.088,0.158,0.159,0.248,0.218
							c0.09,0.059,0.638,0.333,0.638,0.333l2.038,1.019l-0.65-2.184c0,0-0.175-0.587-0.217-0.686
							c-0.042-0.099-0.098-0.195-0.172-0.282C185.955,206.598,185.318,206.688,184.762,207.09z"/>
						<path style="fill:#577300;" d="M181.877,210.528c-0.3,0.618-0.278,1.261,0.326,1.609c0.099,0.057,0.202,0.096,0.308,0.12
							c0.105,0.025,0.713,0.095,0.713,0.095l2.264,0.261l-1.358-1.83c0,0-0.365-0.492-0.439-0.57
							c-0.074-0.079-0.158-0.149-0.258-0.207C182.83,209.656,182.263,209.959,181.877,210.528z"/>
						<path style="fill:#577300;" d="M180.343,214.744c-0.071,0.683,0.17,1.28,0.857,1.401c0.113,0.02,0.223,0.021,0.33,0.007
							c0.107-0.013,0.703-0.155,0.703-0.155l2.216-0.529l-1.902-1.255c0,0-0.511-0.337-0.607-0.386
							c-0.096-0.049-0.2-0.086-0.313-0.106C180.94,213.599,180.51,214.078,180.343,214.744z"/>
						<path style="fill:#577300;" d="M180.343,219.231c0.167,0.666,0.597,1.145,1.284,1.023c0.113-0.02,0.217-0.057,0.313-0.106
							c0.096-0.049,0.607-0.386,0.607-0.386l1.902-1.255l-2.216-0.529c0,0-0.596-0.142-0.703-0.155
							c-0.107-0.013-0.217-0.012-0.33,0.007C180.513,217.951,180.272,218.547,180.343,219.231z"/>
						<path style="fill:#577300;" d="M181.877,223.447c0.385,0.569,0.953,0.871,1.557,0.522c0.099-0.057,0.184-0.128,0.258-0.207
							c0.074-0.079,0.439-0.57,0.439-0.57l1.358-1.83l-2.264,0.261c0,0-0.608,0.07-0.713,0.095c-0.105,0.024-0.209,0.063-0.308,0.12
							C181.599,222.186,181.577,222.829,181.877,223.447z"/>
						<path style="fill:#577300;" d="M184.762,226.884c0.557,0.403,1.193,0.493,1.642-0.042c0.074-0.088,0.129-0.183,0.172-0.282
							c0.042-0.099,0.217-0.686,0.217-0.686l0.65-2.184l-2.038,1.019c0,0-0.548,0.274-0.638,0.333
							c-0.091,0.059-0.175,0.13-0.248,0.218C184.069,225.795,184.268,226.406,184.762,226.884z"/>
						<path style="fill:#577300;" d="M188.647,229.127c0.661,0.188,1.29,0.055,1.528-0.601c0.039-0.108,0.059-0.216,0.065-0.324
							c0.006-0.108-0.031-0.719-0.031-0.719l-0.136-2.275l-1.567,1.655c0,0-0.421,0.445-0.485,0.531
							c-0.065,0.086-0.12,0.182-0.159,0.29C187.624,228.341,188.02,228.847,188.647,229.127z"/>
						<path style="fill:#577300;" d="M193.066,229.906c0.685-0.049,1.231-0.389,1.231-1.087c0-0.115-0.018-0.223-0.05-0.326
							c-0.031-0.103-0.275-0.665-0.275-0.665l-0.906-2.091l-0.906,2.091c0,0-0.243,0.562-0.275,0.665
							c-0.031,0.103-0.05,0.212-0.05,0.326C191.835,229.517,192.381,229.857,193.066,229.906z"/>
						<path style="fill:#577300;" d="M197.485,229.127c0.627-0.281,1.023-0.787,0.785-1.442c-0.039-0.108-0.094-0.203-0.159-0.29
							c-0.065-0.086-0.486-0.531-0.486-0.531l-1.567-1.655l-0.136,2.275c0,0-0.037,0.611-0.031,0.719
							c0.006,0.108,0.026,0.216,0.065,0.324C196.195,229.182,196.824,229.316,197.485,229.127z"/>
						<path style="fill:#577300;" d="M201.37,226.884c0.493-0.478,0.693-1.089,0.244-1.624c-0.074-0.088-0.158-0.159-0.248-0.218
							c-0.09-0.059-0.638-0.333-0.638-0.333l-2.038-1.019l0.65,2.184c0,0,0.175,0.587,0.217,0.686
							c0.042,0.1,0.098,0.195,0.172,0.282C200.177,227.377,200.814,227.287,201.37,226.884z"/>
						<path style="fill:#577300;" d="M204.254,223.447c0.3-0.618,0.278-1.261-0.326-1.609c-0.099-0.057-0.202-0.096-0.308-0.12
							c-0.105-0.025-0.713-0.095-0.713-0.095l-2.264-0.261l1.358,1.83c0,0,0.365,0.492,0.439,0.57
							c0.074,0.079,0.159,0.149,0.258,0.207C203.302,224.318,203.869,224.016,204.254,223.447z"/>
						<path style="fill:#577300;" d="M205.789,219.231c0.071-0.683-0.17-1.28-0.857-1.401c-0.113-0.02-0.223-0.021-0.33-0.007
							c-0.107,0.013-0.703,0.155-0.703,0.155l-2.216,0.529l1.902,1.255c0,0,0.511,0.337,0.607,0.386
							c0.096,0.049,0.2,0.086,0.313,0.106C205.192,220.375,205.622,219.897,205.789,219.231z"/>
						<path style="fill:#577300;" d="M205.789,214.744c-0.167-0.666-0.597-1.144-1.284-1.023c-0.113,0.02-0.217,0.057-0.313,0.106
							c-0.096,0.049-0.607,0.386-0.607,0.386l-1.902,1.255l2.216,0.529c0,0,0.596,0.142,0.703,0.155
							c0.107,0.013,0.217,0.012,0.33-0.007C205.619,216.023,205.86,215.427,205.789,214.744z"/>
						<path style="fill:#577300;" d="M204.254,210.528c-0.385-0.569-0.953-0.871-1.557-0.522c-0.099,0.057-0.184,0.128-0.258,0.207
							c-0.074,0.079-0.439,0.57-0.439,0.57l-1.358,1.83l2.264-0.261c0,0,0.608-0.07,0.713-0.095c0.105-0.024,0.209-0.063,0.308-0.12
							C204.533,211.788,204.554,211.146,204.254,210.528z"/>
						<path style="fill:#577300;" d="M201.37,207.09c-0.557-0.403-1.193-0.493-1.642,0.042c-0.074,0.088-0.129,0.183-0.172,0.282
							c-0.043,0.099-0.217,0.686-0.217,0.686l-0.65,2.184l2.038-1.019c0,0,0.548-0.274,0.638-0.333
							c0.09-0.059,0.174-0.13,0.248-0.218C202.063,208.18,201.864,207.569,201.37,207.09z"/>
						<path style="fill:#577300;" d="M197.485,204.847c-0.661-0.188-1.29-0.055-1.528,0.6c-0.039,0.108-0.059,0.216-0.065,0.324
							c-0.006,0.108,0.031,0.719,0.031,0.719l0.136,2.275l1.567-1.655c0,0,0.421-0.445,0.486-0.531
							c0.065-0.086,0.12-0.182,0.159-0.29C198.508,205.634,198.112,205.128,197.485,204.847z"/>
					</g>
					<g>
						<path style="fill:#CC005F;" d="M230.197,112.148c-3.839,0-6.962-3.123-6.962-6.962c0-3.839,3.123-6.962,6.962-6.962
							c3.839,0,6.962,3.123,6.962,6.962C237.158,109.025,234.035,112.148,230.197,112.148z M230.197,99.681
							c-3.036,0-5.505,2.47-5.505,5.505c0,3.035,2.47,5.506,5.505,5.506c3.036,0,5.505-2.47,5.505-5.506
							C235.702,102.151,233.232,99.681,230.197,99.681z"/>
						<path style="fill:#FFD7D4;" d="M230.197,110.837c-3.116,0-5.65-2.534-5.65-5.65c0-3.115,2.534-5.65,5.65-5.65
							c3.115,0,5.65,2.535,5.65,5.65C235.846,108.302,233.312,110.837,230.197,110.837z M230.197,100.046
							c-2.835,0-5.141,2.306-5.141,5.141c0,2.835,2.306,5.141,5.141,5.141c2.835,0,5.141-2.306,5.141-5.141
							C235.337,102.352,233.031,100.046,230.197,100.046z"/>
					</g>
					<g>
						<path style="fill:#CC005F;" d="M261.209,234.804c-3.839,0-6.962-3.123-6.962-6.962c0-3.839,3.123-6.961,6.962-6.961
							c3.839,0,6.961,3.123,6.961,6.961C268.171,231.681,265.048,234.804,261.209,234.804z M261.209,222.337
							c-3.036,0-5.506,2.47-5.506,5.505c0,3.036,2.47,5.506,5.506,5.506c3.036,0,5.505-2.47,5.505-5.506
							C266.714,224.807,264.245,222.337,261.209,222.337z"/>
						<path style="fill:#FFD7D4;" d="M261.209,233.492c-3.116,0-5.65-2.535-5.65-5.65c0-3.115,2.535-5.65,5.65-5.65
							c3.115,0,5.65,2.535,5.65,5.65C266.859,230.958,264.325,233.492,261.209,233.492z M261.209,222.702
							c-2.835,0-5.141,2.306-5.141,5.14c0,2.835,2.306,5.141,5.141,5.141c2.835,0,5.141-2.306,5.141-5.141
							C266.35,225.008,264.044,222.702,261.209,222.702z"/>
					</g>
					<g>
						<path style="fill:#CC005F;" d="M285.705,90.837c-5.728,0-10.389-4.661-10.389-10.389c0-5.728,4.661-10.388,10.389-10.388
							c5.728,0,10.388,4.66,10.388,10.388C296.094,86.176,291.434,90.837,285.705,90.837z M285.705,72.233
							c-4.53,0-8.215,3.685-8.215,8.215c0,4.53,3.686,8.215,8.215,8.215c4.53,0,8.215-3.686,8.215-8.215
							C293.92,75.918,290.235,72.233,285.705,72.233z"/>
						<path style="fill:#FFD7D4;" d="M285.705,88.879c-4.649,0-8.431-3.782-8.431-8.431c0-4.649,3.782-8.431,8.431-8.431
							c4.649,0,8.431,3.782,8.431,8.431C294.136,85.097,290.354,88.879,285.705,88.879z M285.705,72.777
							c-4.23,0-7.671,3.441-7.671,7.671s3.442,7.672,7.671,7.672s7.671-3.442,7.671-7.672S289.935,72.777,285.705,72.777z"/>
					</g>
					<g>
						<path style="fill:#CC005F;" d="M185.855,182.355c-3.839,0-6.962-3.123-6.962-6.962c0-3.839,3.123-6.961,6.962-6.961
							s6.962,3.123,6.962,6.961C192.816,179.232,189.693,182.355,185.855,182.355z M185.855,169.888
							c-3.036,0-5.506,2.469-5.506,5.505c0,3.036,2.47,5.506,5.506,5.506s5.505-2.47,5.505-5.506
							C191.36,172.358,188.89,169.888,185.855,169.888z"/>
						<path style="fill:#FFD7D4;" d="M185.855,181.043c-3.116,0-5.65-2.535-5.65-5.65c0-3.115,2.534-5.65,5.65-5.65
							c3.115,0,5.65,2.534,5.65,5.65C191.505,178.509,188.97,181.043,185.855,181.043z M185.855,170.253
							c-2.835,0-5.141,2.306-5.141,5.141c0,2.835,2.307,5.141,5.141,5.141c2.835,0,5.141-2.306,5.141-5.141
							C190.995,172.559,188.689,170.253,185.855,170.253z"/>
					</g>
					<path style="fill:#F03018;" d="M244.24,221.512c-0.161,0.063-0.325,0.122-0.491,0.176c-4.313,1.401-9.097-0.767-10.893-4.933
						c-1.66-3.85-0.375-8.389,3.054-10.794c0.1-0.069,0.143-0.185,0.114-0.236c-0.213-0.376-0.399-0.763-0.551-1.155
						c-1.777-4.562,0.488-9.722,5.048-11.504c0.001-0.001,0.004-0.001,0.006-0.003c4.177-1.627,9.065,0.224,11.129,4.216
						c0.319,0.617,0.564,1.273,0.728,1.948l0,0.001c0.026,0.109,0.113,0.231,0.269,0.209c4.153-0.549,8.17,1.924,9.552,5.885
						c1.495,4.282-0.562,9.115-4.685,11c-2.534,1.169-5.4,1.076-7.861-0.223c-0.125-0.067-0.23-0.019-0.272,0.105
						C248.512,218.662,246.652,220.572,244.24,221.512z M241.534,195.648c-0.001,0-0.003,0.001-0.004,0.001
						c-3.137,1.225-4.695,4.776-3.473,7.913c0.108,0.277,0.234,0.538,0.377,0.788c0.751,1.315,0.35,2.985-0.934,3.884
						c-2.356,1.652-3.239,4.774-2.098,7.423c1.235,2.864,4.524,4.354,7.489,3.392c1.827-0.601,3.239-1.97,3.88-3.774
						c0.285-0.805,0.913-1.448,1.721-1.764c0.001-0.001,0.001-0.001,0.003-0.001c0.808-0.315,1.707-0.265,2.463,0.134
						c1.692,0.895,3.662,0.952,5.41,0.154c2.833-1.297,4.247-4.619,3.219-7.564c-0.951-2.724-3.713-4.426-6.568-4.048
						c-1.532,0.203-2.964-0.789-3.331-2.306l0,0c-0.111-0.461-0.278-0.908-0.496-1.329
						C247.77,195.803,244.407,194.529,241.534,195.648z"/>
					<path style="fill:#F03018;" d="M136.12,161.935c-0.11,0.043-0.221,0.083-0.335,0.119c-2.937,0.954-6.195-0.522-7.418-3.359
						c-1.13-2.622-0.255-5.713,2.08-7.351c0.068-0.047,0.098-0.126,0.078-0.161c-0.145-0.256-0.272-0.52-0.376-0.786
						c-1.21-3.107,0.333-6.62,3.438-7.834c0.001,0,0.003-0.001,0.004-0.002c2.844-1.108,6.173,0.152,7.579,2.871
						c0.217,0.42,0.384,0.867,0.496,1.327l0,0.001c0.018,0.074,0.077,0.157,0.183,0.143c2.828-0.374,5.564,1.311,6.505,4.007
						c1.018,2.916-0.383,6.207-3.19,7.491c-1.725,0.796-3.678,0.733-5.353-0.152c-0.085-0.046-0.157-0.013-0.185,0.071
						C139.029,159.995,137.763,161.295,136.12,161.935z M134.277,144.322c-0.001,0-0.002,0.001-0.002,0.001
						c-2.137,0.835-3.198,3.253-2.366,5.389c0.073,0.188,0.16,0.367,0.257,0.537c0.511,0.896,0.238,2.033-0.636,2.645
						c-1.604,1.125-2.206,3.251-1.428,5.055c0.841,1.951,3.081,2.965,5.1,2.31c1.244-0.41,2.206-1.342,2.642-2.57
						c0.195-0.548,0.622-0.986,1.172-1.201c0.001,0,0.001,0,0.002-0.001c0.55-0.214,1.162-0.18,1.677,0.091
						c1.152,0.609,2.494,0.648,3.685,0.105c1.929-0.883,2.892-3.146,2.192-5.151c-0.647-1.855-2.529-3.014-4.473-2.757
						c-1.043,0.138-2.018-0.537-2.268-1.571l0,0c-0.076-0.314-0.189-0.618-0.338-0.905
						C138.524,144.427,136.234,143.559,134.277,144.322z"/>
					<path style="fill:#F03018;" d="M319.764,141.001c-0.086,0.033-0.173,0.065-0.261,0.093c-2.294,0.745-4.84-0.408-5.795-2.624
						c-0.883-2.048-0.2-4.463,1.625-5.742c0.053-0.037,0.076-0.098,0.061-0.126c-0.114-0.2-0.212-0.406-0.294-0.614
						c-0.945-2.427,0.26-5.172,2.686-6.12c0.001,0,0.002-0.001,0.003-0.001c2.222-0.866,4.822,0.119,5.921,2.243
						c0.17,0.328,0.3,0.677,0.388,1.036l0,0.001c0.014,0.058,0.06,0.123,0.143,0.111c2.21-0.292,4.347,1.024,5.081,3.131
						c0.795,2.278-0.299,4.849-2.492,5.852c-1.348,0.622-2.873,0.572-4.182-0.119c-0.066-0.036-0.122-0.01-0.145,0.056
						C322.037,139.485,321.047,140.501,319.764,141.001z M318.324,127.241c-0.001,0-0.001,0.001-0.001,0.001
						c-1.67,0.652-2.498,2.541-1.848,4.21c0.057,0.147,0.125,0.286,0.201,0.419c0.4,0.7,0.186,1.588-0.497,2.066
						c-1.253,0.879-1.723,2.54-1.116,3.949c0.657,1.524,2.407,2.316,3.984,1.805c0.972-0.32,1.723-1.048,2.064-2.008
						c0.152-0.428,0.486-0.77,0.915-0.938c0.001,0,0.001,0,0.001,0c0.43-0.168,0.908-0.141,1.31,0.071
						c0.9,0.476,1.948,0.506,2.878,0.082c1.507-0.69,2.259-2.457,1.713-4.024c-0.506-1.449-1.975-2.355-3.494-2.153
						c-0.815,0.108-1.577-0.42-1.772-1.227l0,0c-0.059-0.245-0.148-0.483-0.264-0.707
						C321.642,127.324,319.853,126.646,318.324,127.241z"/>
					<path style="fill:#F9A500;" d="M340.946,201.899c-0.131-0.113-0.26-0.23-0.385-0.352c-3.257-3.156-3.581-8.398-0.74-11.935
						c2.626-3.269,7.238-4.258,10.968-2.353c0.108,0.055,0.231,0.04,0.263-0.01c0.233-0.365,0.488-0.71,0.762-1.028
						c3.2-3.706,8.82-4.119,12.529-0.923c0.001,0.001,0.003,0.003,0.005,0.005c3.393,2.93,4.045,8.115,1.483,11.808
						c-0.396,0.571-0.861,1.095-1.381,1.555l-0.001,0.001c-0.084,0.074-0.151,0.208-0.059,0.336c2.43,3.413,2.123,8.121-0.73,11.195
						c-3.084,3.326-8.318,3.77-11.914,1.009c-2.219-1.692-3.479-4.269-3.482-7.051c0.001-0.142-0.09-0.212-0.22-0.191
						C345.463,204.341,342.905,203.591,340.946,201.899z M362.535,187.402c-0.001-0.001-0.002-0.002-0.003-0.003
						c-2.551-2.199-6.418-1.913-8.618,0.634c-0.194,0.225-0.366,0.459-0.52,0.702c-0.811,1.279-2.474,1.707-3.869,0.993
						c-2.562-1.309-5.735-0.628-7.542,1.621c-1.953,2.432-1.73,6.036,0.507,8.206c1.387,1.333,3.257,1.941,5.151,1.663
						c0.845-0.124,1.707,0.129,2.364,0.695c0.001,0.001,0.001,0.001,0.002,0.002c0.656,0.567,1.033,1.384,1.034,2.239
						c0.001,1.914,0.873,3.682,2.396,4.854c2.472,1.896,6.07,1.591,8.191-0.696c1.962-2.115,2.173-5.353,0.503-7.699
						c-0.896-1.259-0.69-2.988,0.479-4.023l0,0c0.355-0.314,0.672-0.671,0.942-1.06
						C365.317,192.986,364.869,189.417,362.535,187.402z"/>
					<path style="fill:#F9A500;" d="M229.286,76.336c-0.053-0.106-0.103-0.212-0.15-0.322c-1.224-2.835-0.058-6.217,2.653-7.699
						c2.505-1.37,5.664-0.787,7.512,1.386c0.053,0.063,0.135,0.085,0.168,0.063c0.242-0.169,0.492-0.319,0.748-0.447
						c2.98-1.494,6.623-0.286,8.12,2.693c0,0.001,0.001,0.003,0.002,0.004c1.368,2.729,0.424,6.16-2.152,7.813
						c-0.398,0.255-0.827,0.463-1.275,0.618l-0.001,0c-0.072,0.025-0.149,0.091-0.125,0.196c0.636,2.781-0.786,5.662-3.384,6.85
						c-2.808,1.286-6.216,0.198-7.756-2.478c-0.953-1.644-1.072-3.593-0.348-5.344c0.038-0.089-0.001-0.157-0.088-0.178
						C231.489,79.052,230.076,77.912,229.286,76.336z M246.651,72.86c0-0.001-0.001-0.002-0.001-0.003
						c-1.03-2.049-3.536-2.88-5.586-1.853c-0.181,0.091-0.35,0.193-0.51,0.306c-0.844,0.593-2.002,0.427-2.693-0.387
						c-1.27-1.492-3.443-1.893-5.167-0.951c-1.864,1.019-2.665,3.344-1.825,5.293c0.524,1.201,1.541,2.071,2.805,2.391
						c0.564,0.143,1.039,0.527,1.305,1.055c0,0.001,0,0.001,0.001,0.002c0.265,0.528,0.288,1.14,0.066,1.678
						c-0.499,1.204-0.413,2.543,0.239,3.678c1.059,1.838,3.401,2.586,5.333,1.703c1.786-0.817,2.765-2.799,2.328-4.71
						c-0.235-1.026,0.347-2.059,1.352-2.405l0,0c0.306-0.105,0.598-0.246,0.87-0.421C246.941,77.098,247.592,74.737,246.651,72.86z"
						/>
					<path style="fill:#F9A500;" d="M189.684,155.781c-0.021-0.107-0.039-0.215-0.053-0.324c-0.377-2.826,1.506-5.539,4.286-6.178
						c2.57-0.59,5.231,0.72,6.329,3.113c0.032,0.069,0.098,0.11,0.133,0.098c0.257-0.089,0.517-0.16,0.777-0.21
						c3.023-0.582,5.957,1.405,6.542,4.427c0,0.001,0.001,0.003,0.001,0.004c0.533,2.768-1.167,5.581-3.87,6.404
						c-0.418,0.127-0.852,0.205-1.287,0.229l-0.001,0c-0.07,0.004-0.156,0.044-0.16,0.143c-0.131,2.631-2.117,4.835-4.723,5.24
						c-2.818,0.439-5.574-1.382-6.272-4.145c-0.435-1.7-0.053-3.462,1.03-4.836c0.056-0.07,0.038-0.14-0.034-0.18
						C190.961,158.746,189.992,157.379,189.684,155.781z M205.987,157.041c0-0.001,0-0.002,0-0.002
						c-0.402-2.08-2.421-3.446-4.5-3.046c-0.183,0.035-0.359,0.084-0.53,0.144c-0.899,0.315-1.886-0.122-2.296-1.018
						c-0.754-1.644-2.585-2.545-4.353-2.139c-1.911,0.439-3.206,2.304-2.947,4.247c0.165,1.198,0.851,2.227,1.894,2.828
						c0.465,0.268,0.792,0.729,0.896,1.264c0,0.001,0,0.001,0,0.002c0.103,0.535-0.03,1.086-0.362,1.508
						c-0.746,0.945-1.004,2.157-0.709,3.329c0.481,1.899,2.375,3.151,4.313,2.849c1.792-0.279,3.158-1.794,3.248-3.603
						c0.048-0.97,0.824-1.743,1.804-1.798l0,0c0.298-0.016,0.593-0.069,0.878-0.156C205.183,160.88,206.353,158.945,205.987,157.041
						z"/>
					<g>
						<path style="fill:#FFDCA3;" d="M391.85,318.072H103.212c-3.419,0-6.19,2.771-6.19,6.19l0,0c0,3.418,2.771,6.19,6.19,6.19
							H391.85c3.418,0,6.19-2.771,6.19-6.19l0,0C398.04,320.843,395.268,318.072,391.85,318.072z"/>
						<path style="fill:#FFC973;" d="M391.191,330.448c-9.647,54.112-56.931,95.184-113.811,95.184h-59.698
							c-1.485,0-2.96-0.03-4.424-0.091c-54.89-2.061-99.992-42.395-109.386-95.093H391.191z"/>
						<path style="fill:#FFC65C;" d="M391.191,330.448c-9.374,52.607-54.324,92.891-109.083,95.083
							c-1.566,0.071-3.141,0.101-4.727,0.101h-15.253c22.233-7.596,56.698-29.88,61.678-95.184H391.191z"/>
						<path style="fill:#FFBE57;" d="M391.191,330.448c-9.374,52.607-54.324,92.891-109.083,95.083
							c6.667-0.828,71.507-10.96,84.073-95.083H391.191z"/>
						<path style="fill:#FFD187;" d="M213.257,425.541c-54.89-2.061-99.992-42.395-109.386-95.093h26.869
							C146.539,410.177,208.843,424.612,213.257,425.541z"/>
						<path style="fill:#FFD694;" d="M122.612,330.448c0,0,7.603,62.696,67.018,85.758c0,0-45.385-24.161-47.152-85.755
							L122.612,330.448z"/>
						<path style="fill:#FFE8BF;" d="M342.651,323.609H105.357c-0.558,0-1.01-0.452-1.01-1.01s0.452-1.01,1.01-1.01h237.294
							c0.558,0,1.01,0.452,1.01,1.01S343.21,323.609,342.651,323.609z"/>
						<path style="fill:#FFE8BF;" d="M365.084,323.609h-12.627c-0.558,0-1.01-0.452-1.01-1.01s0.452-1.01,1.01-1.01h12.627
							c0.558,0,1.01,0.452,1.01,1.01S365.643,323.609,365.084,323.609z"/>
						<path style="fill:#FFE8BF;" d="M390.547,323.609h-18.014c-0.558,0-1.01-0.452-1.01-1.01s0.452-1.01,1.01-1.01h18.014
							c0.558,0,1.01,0.452,1.01,1.01S391.106,323.609,390.547,323.609z"/>
					</g>
					<g>
						<path style="fill:#FFC600;" d="M305.662,152.913l-5.714-3.271c-1.856-1.062-2.499-3.428-1.437-5.284l0,0
							c1.063-1.856,3.428-2.499,5.284-1.437l5.714,3.271c1.856,1.063,2.499,3.428,1.437,5.284l0,0
							C309.884,153.333,307.518,153.976,305.662,152.913z"/>
						<path style="fill:#FFD236;" d="M303.499,146.719l-1.789-1.024c-0.581-0.333-0.783-1.074-0.45-1.655l0,0
							c0.333-0.581,1.074-0.783,1.655-0.45l1.789,1.024c0.581,0.333,0.783,1.074,0.45,1.655l0,0
							C304.821,146.851,304.08,147.052,303.499,146.719z"/>
						<path style="fill:#FFD236;" d="M306.922,148.679l-0.592-0.339c-0.581-0.333-0.783-1.074-0.45-1.655l0,0
							c0.333-0.581,1.074-0.783,1.655-0.45l0.592,0.339c0.581,0.333,0.783,1.074,0.45,1.655l0,0
							C308.244,148.81,307.503,149.012,306.922,148.679z"/>
					</g>
					<g>
						<path style="fill:#FFC600;" d="M201.211,99.725l2.594-6.051c0.842-1.966,3.119-2.876,5.085-2.034l0,0
							c1.966,0.842,2.876,3.119,2.033,5.084l-2.594,6.051c-0.842,1.966-3.119,2.876-5.085,2.034l0,0
							C201.279,103.967,200.368,101.691,201.211,99.725z"/>
						<path style="fill:#FFD236;" d="M207.116,96.866l0.812-1.895c0.264-0.616,0.977-0.901,1.592-0.637l0,0
							c0.616,0.264,0.901,0.977,0.637,1.592l-0.812,1.895c-0.264,0.616-0.977,0.901-1.593,0.637l0,0
							C207.137,98.194,206.852,97.481,207.116,96.866z"/>
						<path style="fill:#FFD236;" d="M205.562,100.491l0.269-0.627c0.264-0.616,0.977-0.901,1.592-0.637l0,0
							c0.616,0.264,0.901,0.977,0.637,1.592l-0.269,0.627c-0.264,0.616-0.977,0.901-1.592,0.637l0,0
							C205.583,101.819,205.298,101.106,205.562,100.491z"/>
					</g>
					<g>
						<path style="fill:#FFC600;" d="M219.353,134.51l-5.227,4.002c-1.698,1.3-4.128,0.977-5.428-0.721l0,0
							c-1.3-1.698-0.977-4.128,0.721-5.428l5.227-4.002c1.698-1.3,4.128-0.978,5.428,0.721l0,0
							C221.374,130.779,221.051,133.21,219.353,134.51z"/>
						<path style="fill:#FFD236;" d="M212.805,134.107l-1.637,1.254c-0.532,0.407-1.293,0.306-1.7-0.226l0,0
							c-0.407-0.532-0.306-1.293,0.226-1.7l1.637-1.254c0.532-0.407,1.293-0.306,1.7,0.226l0,0
							C213.438,132.938,213.337,133.699,212.805,134.107z"/>
						<path style="fill:#FFD236;" d="M215.936,131.709l-0.541,0.414c-0.532,0.407-1.293,0.306-1.7-0.226l0,0
							c-0.407-0.532-0.306-1.293,0.226-1.7l0.541-0.414c0.532-0.407,1.293-0.306,1.7,0.226l0,0
							C216.569,130.541,216.468,131.302,215.936,131.709z"/>
					</g>
					<path style="fill:#F03018;" d="M244.152,177.334c0,1.582-1.282,2.864-2.864,2.864c-1.582,0-2.864-1.282-2.864-2.864
						c0-1.582,1.282-2.864,2.864-2.864C242.87,174.47,244.152,175.752,244.152,177.334z"/>
					<path style="fill:#F03018;" d="M303.921,197.941c0,1.256-1.018,2.274-2.273,2.274c-1.256,0-2.274-1.018-2.274-2.274
						c0-1.256,1.018-2.274,2.274-2.274C302.903,195.667,303.921,196.685,303.921,197.941z"/>
					<circle style="fill:#F9A500;" cx="297.494" cy="241.205" r="1.873"/>
					<path style="fill:#F9A500;" d="M158.571,208.765c0,1.103-0.894,1.998-1.998,1.998c-1.103,0-1.998-0.894-1.998-1.998
						c0-1.103,0.894-1.998,1.998-1.998C157.677,206.767,158.571,207.661,158.571,208.765z"/>
					<path style="fill:#F03018;" d="M202.543,127.702c0,1.499-1.215,2.714-2.714,2.714s-2.714-1.215-2.714-2.714
						c0-1.499,1.215-2.714,2.714-2.714S202.543,126.203,202.543,127.702z"/>
					<path style="fill:#F03018;" d="M262.692,113.213c0,1.312-1.064,2.376-2.376,2.376c-1.312,0-2.376-1.064-2.376-2.376
						s1.064-2.376,2.376-2.376C261.628,110.837,262.692,111.9,262.692,113.213z"/>
					<path style="fill:#F03018;" d="M315.7,107.016c0,1.312-1.064,2.376-2.376,2.376c-1.312,0-2.376-1.064-2.376-2.376
						c0-1.312,1.064-2.376,2.376-2.376C314.636,104.64,315.7,105.704,315.7,107.016z"/>
					<path style="fill:#F9A500;" d="M231.093,127.37c0,1.004-0.814,1.818-1.818,1.818c-1.004,0-1.818-0.814-1.818-1.818
						c0-1.004,0.814-1.818,1.818-1.818C230.279,125.552,231.093,126.366,231.093,127.37z"/>
					<circle style="fill:#F9A500;" cx="293.956" cy="159.029" r="3.043"/>
					<circle style="fill:#F9A500;" cx="326.836" cy="114.833" r="3.043"/>
				</g>
			</g>
			<path style="opacity:0.3;fill:#FFCB78;" d="M108.768,318.072c0,0-4.021-3.457-5.881-6.177h287.911h4.147
				c0,0-2.064,4.265-3.387,6.123L108.768,318.072z"/>
		</g>
	</g>
</g>
</svg>
