<svg width="49" height="37" viewBox="0 0 49 37" fill="none" xmlns="http://www.w3.org/2000/svg">
<path d="M20.2435 4.87552V32.1245C20.2435 33.2196 18.9967 34.1227 17.3897 34.2433C17.2682 34.2537 17.1444 34.2582 17.0183 34.2582C14.0048 34.2582 11.2769 33.4504 9.30088 32.1432C7.3271 30.8374 6.10498 29.032 6.10498 27.0383V9.96172C6.10498 5.97432 10.9911 2.74188 17.0183 2.74188C17.1444 2.74188 17.2682 2.74636 17.3897 2.75677C18.2517 2.82152 19.0091 3.11116 19.5278 3.53471C19.9757 3.90095 20.2435 4.36779 20.2435 4.87552Z" fill="#D8AD8F"/>
<path d="M18.587 7.9256C17.6878 8.50849 17.1871 9.29691 17.1791 10.1449C17.1713 10.9928 17.6552 11.7842 18.5431 12.3746C19.0325 12.7006 19.6121 12.9463 20.2434 13.1012V28.9316C19.7595 29.1825 19.1654 29.3187 18.5397 29.3187C17.7981 29.3187 17.0993 29.1273 16.5738 28.7797L12.9682 26.3945C12.2593 25.9247 11.9892 25.2308 12.2638 24.5832C12.455 24.1305 12.2615 23.6422 11.7574 23.3086C11.3849 23.0622 10.8886 22.926 10.362 22.926C10.1808 22.926 10.0018 22.9424 9.8275 22.9744C9.57768 23.0206 9.31999 23.0444 9.06231 23.0444C8.31514 23.0444 7.61625 22.8538 7.09301 22.5076L6.10498 21.8539V10.0183L15.7557 3.63302C16.2812 3.28607 16.9789 3.09479 17.7216 3.09479C18.3923 3.09479 19.0248 3.25038 19.5277 3.53474C19.9756 3.90098 20.2434 4.36782 20.2434 4.87556V7.20345C20.1466 7.24291 20.0443 7.27861 19.9396 7.31062C19.44 7.46028 18.9853 7.66725 18.587 7.9256Z" fill="#D8AD8F"/>
<path d="M20.2437 8.28142V30.1382C19.1937 30.3973 18.0751 30.5321 16.9612 30.5321C16.3096 30.5321 15.6535 30.4874 15.0121 30.3973C12.5465 30.0541 10.4308 29.0959 9.05569 27.6993C7.67943 26.3035 7.20786 24.6359 7.72782 23.0055C8.14193 21.7041 9.14231 20.5554 10.5996 19.6815C9.81072 18.6184 9.57215 17.4049 9.94923 16.2219C10.4219 14.736 11.8003 13.4801 13.7337 12.7229C13.6955 12.3432 13.736 11.9598 13.8553 11.5853C14.4652 9.66906 17.0545 8.27838 20.0119 8.27838C20.0894 8.27845 20.166 8.27918 20.2437 8.28142Z" fill="#D8AD8F"/>
<path d="M20.2434 4.87553V32.1245C20.2434 33.2196 18.9966 34.1227 17.3897 34.2433C17.258 33.8733 17.1882 33.4869 17.1882 33.0908V3.90919C17.1882 3.51311 17.258 3.12677 17.3897 2.75677C18.9965 2.87731 20.2434 3.78042 20.2434 4.87553Z" fill="#D8AD8F"/>
<path d="M43.4657 9.96172V27.0383C43.4657 31.0257 38.5796 34.2582 32.5523 34.2582C32.4263 34.2582 32.3025 34.2537 32.1809 34.2433C31.3066 34.1777 30.5379 33.88 30.0204 33.446C29.5859 33.0827 29.3271 32.6233 29.3271 32.1245V4.87552C29.3271 3.78041 30.574 2.87738 32.1809 2.75677C32.3025 2.74636 32.4263 2.74188 32.5523 2.74188C35.5659 2.74188 38.2937 3.5496 40.2698 4.85688C42.2436 6.16265 43.4657 7.96799 43.4657 9.96172Z" fill="#D8AD8F"/>
<path d="M43.4658 14.5476V24.2279C43.3138 24.2033 43.1574 24.1907 42.9988 24.1907C42.4722 24.1907 41.977 24.3269 41.6045 24.5733C41.1004 24.9068 40.9068 25.3959 41.0992 25.85C41.3715 26.4978 41.1015 27.1909 40.3925 27.6599L32.4252 32.93C31.9007 33.2777 31.202 33.4689 30.4593 33.4689C30.3107 33.4689 30.1644 33.4615 30.0204 33.4459C29.5859 33.0826 29.3271 32.6232 29.3271 32.1244V7.77446C29.8504 7.43351 30.5414 7.24591 31.2773 7.24591C32.02 7.24591 32.7177 7.4372 33.2432 7.78415L43.4658 14.5476Z" fill="#D8AD8F"/>
<path d="M37.9696 17.6326C38.7585 18.6965 38.9971 19.9092 38.62 21.0921C38.1463 22.5781 36.7689 23.834 34.8345 24.5912C34.8727 24.9709 34.8334 25.3542 34.7141 25.7287C34.1571 27.4759 31.9537 28.787 29.3271 29.0036V6.97043C30.0732 6.84613 30.8418 6.7821 31.6082 6.7821C32.2598 6.7821 32.9146 6.82749 33.5573 6.91681C36.0217 7.26 38.1373 8.21817 39.5136 9.61477C40.8887 11.0107 41.3602 12.6783 40.8414 14.3086C40.4273 15.6099 39.4257 16.7587 37.9696 17.6326Z" fill="#D8AD8F"/>
<path d="M32.3823 3.90919V33.0908C32.3823 33.4869 32.3125 33.8732 32.1809 34.2432C30.574 34.1226 29.3271 33.2196 29.3271 32.1244V4.87553C29.3271 3.78042 30.574 2.87739 32.1809 2.75677C32.3127 3.12677 32.3823 3.51311 32.3823 3.90919Z" fill="#D8AD8F"/>
<path d="M48.6792 20.5979L47.4031 21.4429L45.0737 22.9831C44.789 23.1715 44.3749 23.2355 43.9866 23.1633C42.7555 22.9355 41.378 23.1424 40.4103 23.7842C39.4414 24.4252 39.1286 25.3357 39.473 26.1509C39.581 26.4062 39.4831 26.6817 39.1984 26.87L31.2311 32.1409C30.8057 32.423 30.1136 32.423 29.6871 32.1409L28.1184 31.103V18.3437C28.1724 18.0243 28.1724 17.7012 28.1184 17.3818V10.153L29.8897 8.98196L30.5052 8.57402C30.9317 8.2919 31.6227 8.2919 32.0491 8.57402L48.6791 19.5757C49.1069 19.8579 49.1069 20.315 48.6792 20.5979Z" fill="#FFBC2E"/>
<path d="M37.9694 17.6327C38.7582 18.6965 38.9968 19.9092 38.6197 21.0922C38.146 22.5781 36.7686 23.834 34.8342 24.5912C34.8724 24.9709 34.8331 25.3542 34.7138 25.7287C34.1028 27.645 31.5134 29.0357 28.5561 29.0357C28.4109 29.0357 28.2635 29.0319 28.1184 29.0253V18.3437C28.1724 18.0243 28.1724 17.7012 28.1184 17.3818V10.153L29.8897 8.98196L30.5052 8.57402C30.9317 8.2919 31.6227 8.2919 32.0491 8.57402L40.8188 14.3756C40.3922 15.6494 39.4008 16.7736 37.9694 17.6327Z" fill="#FFBC2E"/>
<path d="M36.012 26.2499C35.796 26.2499 35.5799 26.1954 35.4152 26.0864C35.0856 25.8683 35.0856 25.5148 35.4152 25.2967L35.5651 25.1975C35.8947 24.9796 36.429 24.9796 36.7587 25.1975C37.0884 25.4156 37.0884 25.7691 36.7587 25.9872L36.6088 26.0864C36.444 26.1954 36.228 26.2499 36.012 26.2499Z" fill="#D17D00"/>
<path d="M33.8518 17.579C33.6359 17.579 33.4198 17.5245 33.2551 17.4155C32.9254 17.1974 32.9254 16.8439 33.2551 16.6258L33.4049 16.5266C33.7345 16.3087 34.2689 16.3087 34.5985 16.5266C34.9282 16.7447 34.9282 17.0982 34.5985 17.3163L34.4487 17.4155C34.2838 17.5245 34.0679 17.579 33.8518 17.579Z" fill="#E21717"/>
<path d="M31.6104 12.4088C31.3944 12.4088 31.1783 12.3542 31.0136 12.2453C30.6839 12.0272 30.6839 11.6737 31.0136 11.4555L31.1635 11.3564C31.493 11.1384 32.0274 11.1384 32.3571 11.3564C32.6868 11.5745 32.6868 11.9279 32.3571 12.1461L32.2072 12.2453C32.0423 12.3543 31.8263 12.4088 31.6104 12.4088Z" fill="#E21717"/>
<path d="M34.4289 19.7624C34.2129 19.7624 33.9968 19.7078 33.8321 19.5988C33.5025 19.3807 33.5026 19.0271 33.8323 18.809L33.9823 18.7099C34.3119 18.4919 34.8463 18.492 35.1759 18.71C35.5054 18.9281 35.5053 19.2817 35.1757 19.4998L35.0257 19.5989C34.8608 19.7079 34.6449 19.7624 34.4289 19.7624Z" fill="#E21717"/>
<path d="M41.8345 19.2719C41.6185 19.2719 41.4025 19.2173 41.2377 19.1084C40.9081 18.8903 40.9081 18.5368 41.2377 18.3186L41.3876 18.2195C41.7172 18.0015 42.2515 18.0015 42.5812 18.2195C42.9109 18.4376 42.9109 18.791 42.5812 19.0092L42.4313 19.1084C42.2665 19.2174 42.0505 19.2719 41.8345 19.2719Z" fill="#D17D00"/>
<path d="M22.5707 14.3913V25.8337L22.0688 26.1658L19.3118 27.9897C18.8864 28.2726 18.1955 28.2726 17.7679 27.9897L14.1623 25.6044C13.8777 25.4161 13.7797 25.1422 13.8889 24.8853C14.2332 24.0709 13.9204 23.1596 12.9516 22.5187C11.9827 21.8777 10.6064 21.6715 9.37424 21.8993C9.00961 21.9656 8.6203 21.9135 8.33891 21.7497C8.32089 21.7392 8.30406 21.7288 8.28713 21.7176L0.319841 16.4468C-0.106614 16.1647 -0.106614 15.7075 0.319841 15.4247L16.9498 4.42296C17.3763 4.14083 18.0684 4.14083 18.4948 4.42296L19.5582 5.12726C20.0973 5.4831 19.933 6.08615 19.2409 6.29457C18.5781 6.49337 17.9558 6.77174 17.4066 7.12764C16.3871 7.78873 15.7738 8.62701 15.569 9.50171C15.2652 10.7971 15.8559 12.1706 17.347 13.1623C18.6456 14.0258 20.364 14.442 22.0688 14.413C22.2365 14.4099 22.4042 14.4032 22.5707 14.3913Z" fill="#FFBC2E"/>
<path d="M22.0688 14.4128V26.1658L19.3118 27.9897C18.8864 28.2726 18.1955 28.2726 17.7678 27.9897L14.1623 25.6044C13.8776 25.4161 13.7797 25.1421 13.8889 24.8853C14.2332 24.0708 13.9204 23.1596 12.9515 22.5186C11.9826 21.8777 10.6064 21.6715 9.3742 21.8993C9.00957 21.9655 8.62026 21.9134 8.33887 21.7496C8.86669 20.9627 9.63188 20.2614 10.5996 19.6815C9.8107 18.6184 9.57213 17.4049 9.94921 16.2219C10.4219 14.736 11.8003 13.4801 13.7337 12.7229C13.6954 12.3432 13.736 11.9598 13.8552 11.5854C14.1129 10.7754 14.7251 10.0585 15.5691 9.50159C15.2654 10.7969 15.8561 12.1705 17.3472 13.1621C18.6455 14.0257 20.3639 14.4419 22.0688 14.4128Z" fill="#FFBC2E"/>
<path d="M10.218 20.267C10.002 20.267 9.78597 20.2124 9.62125 20.1034L9.47138 20.0043C9.1417 19.7862 9.1417 19.4327 9.47138 19.2146C9.80094 18.9966 10.3353 18.9966 10.665 19.2146L10.8149 19.3137C11.1445 19.5318 11.1445 19.8852 10.8149 20.1034C10.6499 20.2124 10.434 20.267 10.218 20.267Z" fill="#D17D00"/>
<path d="M11.8139 12.5855C11.598 12.5855 11.3819 12.5309 11.2172 12.422L11.0673 12.3228C10.7377 12.1047 10.7377 11.7513 11.0673 11.5331C11.3969 11.3151 11.9313 11.3151 12.2609 11.5331L12.4108 11.6322C12.7405 11.8503 12.7405 12.2038 12.4108 12.422C12.246 12.5309 12.03 12.5855 11.8139 12.5855Z" fill="#D17D00"/>
<path d="M9.08763 17.9962C8.87167 17.9962 8.6556 17.9416 8.49087 17.8327L8.341 17.7335C8.01133 17.5154 8.01133 17.162 8.341 16.9438C8.67057 16.7258 9.20495 16.7258 9.53462 16.9438L9.68449 17.0429C10.0142 17.261 10.0142 17.6145 9.68449 17.8327C9.51965 17.9417 9.30358 17.9962 9.08763 17.9962Z" fill="#D17D00"/>
<path d="M20.0244 19.2197C19.8084 19.2197 19.5924 19.1652 19.4276 19.0562L19.2778 18.957C18.9481 18.7389 18.9481 18.3855 19.2778 18.1673C19.6073 17.9494 20.1417 17.9494 20.4714 18.1673L20.6213 18.2665C20.9509 18.4846 20.9509 18.838 20.6213 19.0562C20.4564 19.1652 20.2405 19.2197 20.0244 19.2197Z" fill="#E21717"/>
<path d="M20.7659 24.1188C20.55 24.1188 20.334 24.0644 20.1693 23.9554L20.0193 23.8562C19.6896 23.6382 19.6895 23.2847 20.0191 23.0665C20.3486 22.8485 20.883 22.8484 21.2127 23.0664L21.3627 23.1655C21.6923 23.3835 21.6925 23.7371 21.3629 23.9552C21.1981 24.0643 20.982 24.1188 20.7659 24.1188Z" fill="#E21717"/>
<path d="M39.1895 14.0786C38.7383 15.4946 37.4431 16.6478 35.7269 17.361C36.8635 18.3139 37.3766 19.581 36.9681 20.8615C36.5 22.3333 34.929 23.4626 32.9485 23.9554C33.1792 24.4393 33.2321 24.9671 33.0621 25.4987C32.936 25.8918 32.7019 26.2514 32.3824 26.5663C31.4721 27.4664 29.8753 27.9994 28.1873 27.9094V8.42887C29.4544 8.01421 30.8992 7.82589 32.3824 7.92489C32.6571 7.94274 32.9328 7.97107 33.2096 8.00973C37.3935 8.59263 40.0718 11.31 39.1895 14.0786Z" fill="#72B766"/>
<path d="M32.3824 7.92489V26.5663C31.4721 27.4664 29.8753 27.9994 28.1873 27.9094V8.42887C29.4544 8.01421 30.8993 7.82589 32.3824 7.92489Z" fill="#72B766"/>
<path d="M20.3809 9.40489V28.8853C19.4018 29.2055 18.3148 29.3915 17.1884 29.4139C16.5874 29.4258 15.9741 29.3908 15.3598 29.3052C11.1747 28.7215 8.49759 26.0042 9.37869 23.2355C9.82994 21.8203 11.1251 20.6664 12.8424 19.9531C11.7058 19.0003 11.1928 17.7331 11.6001 16.4527C12.0694 14.9816 13.6392 13.8515 15.6197 13.3587C15.389 12.8748 15.3372 12.347 15.5061 11.8154C15.7402 11.0806 16.3569 10.4642 17.1885 10.0376C18.0751 9.58209 19.206 9.34231 20.3809 9.40489Z" fill="#72B766"/>
<path d="M20.381 9.40489V28.8853C19.4019 29.2055 18.3149 29.3915 17.1885 29.4139V10.0377C18.0752 9.58209 19.2062 9.34231 20.381 9.40489Z" fill="#72B766"/>
<path d="M24.7854 37C21.5217 37 18.876 35.2497 18.876 33.0906V3.90943C18.876 1.75035 21.5217 0 24.7854 0C28.0491 0 30.6948 1.75035 30.6948 3.90943V33.0906C30.6948 35.2497 28.049 37 24.7854 37Z" fill="#FF4C33"/>
<path d="M30.6943 3.90921V33.0908C30.6943 35.2497 28.0486 37 24.7852 37C24.4656 37 24.1528 36.9829 23.8467 36.9509C26.6645 36.6538 28.8172 35.0383 28.8172 33.0908V3.90921C28.8172 2.82971 28.1556 1.85224 27.0865 1.14498C26.2267 0.576246 25.1026 0.181676 23.8467 0.0491406C24.1528 0.017127 24.4656 0 24.7852 0C26.417 0 27.8945 0.437713 28.9636 1.14498C30.0326 1.85224 30.6943 2.82971 30.6943 3.90921Z" fill="#FF4C33"/>
<path d="M24.2491 33.1668C24.0332 33.1668 23.8171 33.1122 23.6524 33.0033C22.9874 32.5632 22.6211 31.9783 22.6211 31.356C22.6211 30.7338 22.9874 30.1488 23.6524 29.7089L24.7245 28.9995C25.0707 28.7705 25.2614 28.4659 25.2614 28.142C25.2614 27.818 25.0708 27.5135 24.7245 27.2845L23.6524 26.5752C22.2795 25.6669 22.2795 24.1891 23.6524 23.2808L24.7245 22.5714C25.0708 22.3424 25.2614 22.0379 25.2614 21.7139C25.2614 21.39 25.0707 21.0854 24.7245 20.8564L23.6524 20.1471C22.2795 19.2389 22.2795 17.761 23.6524 16.8528L24.7245 16.1434C25.0707 15.9144 25.2614 15.6098 25.2614 15.2859C25.2614 14.9619 25.0708 14.6574 24.7245 14.4284L23.6524 13.7191C22.2795 12.8108 22.2795 11.333 23.6524 10.4247L24.7245 9.71529C25.0708 9.48628 25.2614 9.18176 25.2614 8.85779C25.2614 8.53389 25.0707 8.22929 24.7245 8.00028L23.6524 7.291C22.9873 6.85097 22.6211 6.26598 22.6211 5.64377C22.6211 5.0215 22.9874 4.43658 23.6524 3.99655C23.9821 3.77853 24.5163 3.7786 24.846 3.99662C25.1756 4.21465 25.1756 4.56817 24.846 4.78627C24.4997 5.01528 24.3091 5.31981 24.3091 5.64377C24.3091 5.96774 24.4997 6.27227 24.846 6.50135L25.918 7.21057C26.5832 7.65059 26.9494 8.23558 26.9494 8.85779C26.9494 9.48007 26.5832 10.065 25.918 10.505L24.8459 11.2143C24.1312 11.6871 24.1312 12.4565 24.8459 12.9295L25.9179 13.6387C26.5831 14.0787 26.9493 14.6636 26.9493 15.2859C26.9493 15.9081 26.5831 16.4931 25.9179 16.9331L24.8458 17.6424C24.1311 18.1152 24.1311 18.8846 24.8458 19.3575L25.9178 20.0667C26.5829 20.5067 26.9492 21.0917 26.9492 21.7139C26.9492 22.3362 26.5829 22.9211 25.9178 23.3611L24.8457 24.0704C24.1309 24.5433 24.1309 25.3127 24.8457 25.7856L25.9177 26.4948C26.5828 26.9348 26.9491 27.5197 26.9491 28.142C26.9491 28.7642 26.5828 29.3492 25.9177 29.7892L24.8456 30.4985C24.4993 30.7275 24.3087 31.0321 24.3087 31.356C24.3087 31.68 24.4993 31.9845 24.8456 32.2135C25.1751 32.4316 25.1752 32.7851 24.8456 33.0032C24.6812 33.1122 24.4652 33.1668 24.2491 33.1668Z" fill="#F9E8D4"/>
</svg>
