<svg width="43" height="46" viewBox="0 0 43 46" fill="none" xmlns="http://www.w3.org/2000/svg">
<path d="M33.5938 22.4609V32.3438C33.5938 33.3362 32.8418 34.1406 31.9141 34.1406C31.6078 34.1406 31.3215 34.0515 31.0742 33.8983V37.7344C31.0742 38.7268 30.3222 39.5312 29.3945 39.5312C28.4668 39.5312 27.7148 38.7268 27.7148 37.7344V27.8516C27.7148 26.8591 28.4668 26.0547 29.3945 26.0547C29.7008 26.0547 29.9871 26.1438 30.2344 26.297V22.4609C30.2344 21.4685 30.9864 20.6641 31.9141 20.6641C32.8418 20.6641 33.5938 21.4685 33.5938 22.4609Z" fill="#FFD885"/>
<path d="M9.23828 18.8672C10.166 18.8672 10.918 19.6716 10.918 20.6641V24.5002C11.1652 24.347 11.4515 24.2579 11.7578 24.2579C12.6855 24.2579 13.4375 25.0624 13.4375 26.0548V35.9376C13.4375 36.93 12.6855 37.7345 11.7578 37.7345C10.8301 37.7345 10.0781 36.93 10.0781 35.9376V32.1015C9.83087 32.2547 9.54457 32.3438 9.23828 32.3438C8.31059 32.3438 7.55859 31.5394 7.55859 30.547V20.6641C7.55859 19.6716 8.31059 18.8672 9.23828 18.8672Z" fill="#FFD885"/>
<path d="M37.9008 7.23124C38.3476 7.70974 38.7724 8.20299 39.1751 8.70962C40.0977 9.87004 40.2344 11.5334 39.5304 12.8595L22.1802 45.5426C21.8565 46.1524 21.0395 46.1524 20.7157 45.5426L3.46885 13.0541C2.77035 11.7383 2.9017 10.0918 3.80445 8.92901C4.37781 8.1905 4.9972 7.47939 5.66319 6.80044C14.7204 -2.43325 29.0568 -2.23874 37.9008 7.23124Z" fill="#FFD885"/>
<path d="M23.3259 43.3845L7.67774 13.9076C6.52497 11.7362 6.74165 9.01874 8.23162 7.09968C9.17787 5.88086 10.2 4.70732 11.2992 3.5867C11.9848 2.88772 12.6889 2.22188 13.4094 1.5884C21.6485 -1.73483 31.303 0.166439 37.9009 7.2313C38.3477 7.70981 38.7724 8.20305 39.1752 8.70968C40.0976 9.8701 40.2344 11.5335 39.5304 12.8596L23.3259 43.3845Z" fill="#FFD885"/>
<path d="M40.145 13.2979L39.9033 13.7532C39.598 14.3283 38.8461 14.3866 38.4644 13.8664C38.3643 13.73 38.263 13.5944 38.1604 13.46C35.9474 10.5565 33.3957 8.35454 30.6692 6.85531C30.2201 7.59581 29.4411 8.08599 28.5546 8.08599C27.1631 8.08599 26.0351 6.8793 26.0351 5.39068C26.0351 5.26679 26.0436 5.14514 26.0587 5.02564C22.9257 4.2308 19.6909 4.27545 16.5671 5.16499C16.7142 5.5073 16.7968 5.88779 16.7968 6.28912C16.7968 7.77774 15.6688 8.98443 14.2773 8.98443C13.1799 8.98443 12.2468 8.23361 11.9013 7.18621C9.56626 8.57052 7.36797 10.481 5.41248 12.9238C5.11274 13.2982 4.82291 13.6808 4.54232 14.0708C4.16371 14.5969 3.40651 14.5397 3.10005 13.9624L2.85415 13.4992C2.13188 12.1386 2.2676 10.4359 3.20125 9.23348C3.79418 8.4698 4.43465 7.73443 5.12332 7.03231C14.4891 -2.5162 29.3143 -2.31495 38.4598 7.47784C38.9219 7.97261 39.3611 8.48274 39.7775 9.00662C40.7315 10.2066 40.8729 11.9266 40.145 13.2979Z" fill="#D7A251"/>
<path d="M7.00163 11.1104C6.45657 11.6786 5.92596 12.2822 5.41248 12.9236C5.11274 13.298 4.82291 13.6806 4.54232 14.0706C4.16372 14.5967 3.40651 14.5395 3.10005 13.9622L2.85415 13.499C2.13188 12.1384 2.2676 10.4357 3.20125 9.23327C3.67543 8.62252 4.1816 8.03071 4.717 7.45868C5.20605 8.75135 5.98215 9.97709 7.00163 11.1104Z" fill="#D7A251"/>
<path d="M13.4375 13.7338C11.9761 12.7368 10.7142 11.4395 9.72483 9.91692C8.95889 8.68786 9.1104 7.05135 10.0867 6.00692C11.1699 4.84812 12.9262 4.84812 14.0095 6.00692L14.1696 6.17825C14.3648 6.38705 14.6813 6.38705 14.8765 6.17825L15.0367 6.00692C16.1199 4.84812 17.8762 4.84812 18.9594 6.00692C19.9357 7.05135 20.0872 8.68795 19.3213 9.91692C18.332 11.4395 17.07 12.7368 15.6086 13.7338L14.7918 14.2911C14.6278 14.403 14.4182 14.403 14.2543 14.2911L13.4375 13.7338ZM22.3189 32.0616C21.2356 30.9028 19.4794 30.9028 18.3961 32.0616L18.236 32.2329C18.0408 32.4417 17.7243 32.4417 17.5291 32.2329L17.3689 32.0616C16.2857 30.9028 14.5294 30.9028 13.4462 32.0616C12.4699 33.106 12.3184 34.7426 13.0843 35.9716C14.0736 37.4942 15.3356 38.7915 16.797 39.7885L17.6138 40.3458C17.7778 40.4577 17.9874 40.4577 18.1513 40.3458L18.9681 39.7885C20.4296 38.7915 21.6915 37.4942 22.6808 35.9716C23.4467 34.7425 23.2953 33.106 22.3189 32.0616ZM35.2648 21.5332C34.1816 20.3744 32.4253 20.3744 31.3421 21.5332L31.1819 21.7045C30.9867 21.9133 30.6702 21.9133 30.475 21.7045L30.3149 21.5332C29.2316 20.3744 27.4753 20.3744 26.3921 21.5332C25.4158 22.5776 25.2643 24.2141 26.0302 25.4432C27.0196 26.9658 28.2815 28.2631 29.7429 29.2601L30.5598 29.8174C30.7237 29.9293 30.9333 29.9293 31.0973 29.8174L31.9141 29.2601C33.3755 28.2631 34.6374 26.9657 35.6268 25.4432C36.3927 24.2141 36.2412 22.5776 35.2648 21.5332Z" fill="#FF4C33"/>
<path d="M13.4375 13.7339C11.9761 12.7369 10.7142 11.4394 9.72483 9.91695C8.95889 8.68789 9.1104 7.05138 10.0867 6.00695C10.9356 5.09881 12.1978 4.90259 13.2255 5.41784C13.0264 5.56339 12.8366 5.7296 12.6598 5.91872C11.2767 7.39836 11.0621 9.71669 12.1471 11.4577C12.83 12.5086 13.6052 13.4831 14.4594 14.3702C14.3877 14.3604 14.3176 14.3343 14.2543 14.2911L13.4375 13.7339ZM15.5066 37.5124C14.4216 35.7713 14.6362 33.453 16.0193 31.9734C16.196 31.7844 16.3859 31.6181 16.585 31.4725C15.5573 30.9573 14.2951 31.1535 13.4462 32.0616C12.4699 33.1062 12.3184 34.7427 13.0843 35.9716C14.0736 37.4941 15.3356 38.7916 16.797 39.7886L17.6138 40.3458C17.6771 40.389 17.7474 40.415 17.819 40.4249C16.9647 39.5378 16.1894 38.5633 15.5066 37.5124ZM28.4525 26.9839C27.3675 25.2429 27.5821 22.9245 28.9652 21.445C29.1419 21.2559 29.3318 21.0896 29.5309 20.9441C28.5032 20.4288 27.241 20.6251 26.3921 21.5332C25.4158 22.5776 25.2643 24.2142 26.0302 25.4432C27.0196 26.9658 28.2815 28.2631 29.7429 29.2601L30.5598 29.8173C30.6231 29.8606 30.6932 29.8866 30.7649 29.8965C29.9106 29.0094 29.1355 28.0348 28.4525 26.9839Z" fill="#FF4C33"/>
<path d="M20.9961 25.1562C20.9961 26.1487 20.2441 26.9531 19.3164 26.9531C18.3887 26.9531 17.6367 26.1487 17.6367 25.1562C17.6367 24.1638 18.3887 23.3594 19.3164 23.3594C20.2441 23.3594 20.9961 24.1638 20.9961 25.1562ZM14.2773 17.9688C13.3497 17.9688 12.5977 18.7732 12.5977 19.7656C12.5977 20.758 13.3497 21.5625 14.2773 21.5625C15.205 21.5625 15.957 20.758 15.957 19.7656C15.957 18.7732 15.205 17.9688 14.2773 17.9688ZM30.2344 12.5781C29.3067 12.5781 28.5547 13.3826 28.5547 14.375C28.5547 15.3674 29.3067 16.1719 30.2344 16.1719C31.1621 16.1719 31.9141 15.3674 31.9141 14.375C31.9141 13.3826 31.1621 12.5781 30.2344 12.5781ZM22.6758 12.5781C21.2842 12.5781 20.1562 13.7848 20.1562 15.2734C20.1562 16.7621 21.2842 17.9688 22.6758 17.9688C24.0673 17.9688 25.1953 16.7621 25.1953 15.2734C25.1953 13.7848 24.0673 12.5781 22.6758 12.5781Z" fill="#7CBC71"/>
</svg>
