<svg width="44" height="40" viewBox="0 0 44 40" fill="none" xmlns="http://www.w3.org/2000/svg">
<path d="M44 20.1849C43.9218 21.9185 43.5928 23.6351 43.0214 25.2905C42.523 26.985 42.1869 28.7685 41.2401 30.2518C40.2828 31.7573 38.6138 32.7929 37.2703 34.0141C35.9268 35.2353 34.8313 36.8201 33.1737 37.6908C31.5419 38.5491 29.5468 38.823 27.6821 39.2776C25.8489 39.7417 23.9566 39.9846 22.0539 40C20.1528 39.9721 18.2641 39.717 16.4363 39.2411C14.6265 38.7478 12.897 38.0373 11.2936 37.1285C9.60167 36.3482 8.02935 35.3698 6.61669 34.2183C5.35331 32.9326 4.28059 31.5019 3.42593 29.9627C2.48145 28.4794 1.31545 27.0546 0.817034 25.3608C0.298828 23.6751 0.0241745 21.9352 0 20.1849C0 18.409 0.773793 16.7566 1.25552 15.1187C1.75393 13.4242 1.92462 11.6 2.8691 10.1166C3.82724 8.61184 5.45676 7.54105 6.80103 6.32193C8.14531 5.1028 9.37503 3.70015 11.0303 2.83152C12.6629 1.97323 14.6179 1.73796 16.4818 1.28467C18.2828 0.845177 20.1034 0 22.0554 0C23.9935 0.0192177 25.9209 0.265484 27.7898 0.732717C29.632 1.25148 31.3917 1.98697 33.0243 2.92052C34.6796 3.79122 35.8494 5.20767 37.1929 6.42887C38.5364 7.65006 40.1341 8.69187 41.0914 10.1966C41.9915 11.731 42.6666 13.3661 43.0995 15.06C43.6451 16.7251 43.9478 18.4481 44 20.1849Z" fill="#E7C897"/>
<path d="M6.06892 21.3881C5.64995 21.3881 5.3103 21.0792 5.3103 20.6982C5.3103 17.9695 7.29561 17.2485 8.34479 17.2485C8.76376 17.2462 9.10544 17.5532 9.10796 17.9343C9.11047 18.3153 8.77286 18.6261 8.35389 18.6284C8.09444 18.636 6.82754 18.7712 6.82754 20.6982C6.82754 21.0792 6.4879 21.3881 6.06892 21.3881Z" fill="#D7A251"/>
<path d="M36.4138 28.2875C36.3628 28.2878 36.3119 28.2832 36.2621 28.2737C36.0649 28.2372 35.8917 28.1308 35.7807 27.9782C35.6698 27.8255 35.63 27.6389 35.6703 27.4596C36.2772 24.6867 34.0492 24.1479 33.9536 24.1244C33.6889 24.066 33.4791 23.883 33.4037 23.645C33.3283 23.407 33.399 23.1505 33.5888 22.973C33.7787 22.7954 34.0586 22.7241 34.3223 22.786C35.6119 23.0799 37.8696 24.4908 37.1572 27.7301C37.0876 28.0535 36.7762 28.2871 36.4138 28.2875Z" fill="#D7A251"/>
<path d="M18.9656 34.497C17.749 34.6001 16.5503 34.1745 15.7324 33.3489C15.1775 32.6319 14.9824 31.7348 15.1953 30.8796C15.2956 30.5096 15.7068 30.2837 16.1136 30.3749C16.5204 30.4662 16.7689 30.8401 16.6685 31.2101C16.5622 31.6571 16.6578 32.1243 16.934 32.5065C17.4767 32.9762 18.2221 33.2003 18.9656 33.1171C19.3846 33.1171 19.7242 33.426 19.7242 33.8071C19.7242 34.1881 19.3846 34.497 18.9656 34.497Z" fill="#D7A251"/>
<path d="M31.8622 9.65913C31.6083 9.6594 31.3711 9.54416 31.2302 9.35211C30.9564 8.9371 30.5029 8.64636 29.9811 8.55139C29.4593 8.45643 28.9176 8.56604 28.4893 8.85328C28.2638 8.99008 27.9752 9.00708 27.7322 8.89788C27.4892 8.78868 27.3287 8.56986 27.3112 8.32385C27.2936 8.07784 27.4218 7.84202 27.6473 7.70522C28.4099 7.21297 29.3619 7.02847 30.2789 7.19522C31.1959 7.36196 31.9967 7.86519 32.4926 8.58627C32.6478 8.79788 32.6624 9.07002 32.5306 9.29438C32.3987 9.51873 32.1419 9.65891 31.8622 9.65913Z" fill="#D7A251"/>
<path d="M23.3943 25.5278C23.0123 25.5267 22.6907 25.2675 22.6438 24.9227C22.5968 24.5779 22.839 24.2551 23.2092 24.1693C23.8871 24.0218 24.488 23.6657 24.91 23.1613C25.0623 22.8923 25.0776 22.5762 24.9518 22.2961C24.8661 22.0619 24.9243 21.804 25.1045 21.6194C25.2847 21.4349 25.5594 21.3518 25.8252 21.4014C26.091 21.4511 26.3075 21.6259 26.3931 21.86C26.6534 22.5056 26.5982 23.2216 26.2414 23.8278C25.6158 24.669 24.6677 25.2678 23.5824 25.5071C23.521 25.5213 23.4577 25.5282 23.3943 25.5278Z" fill="#D7A251"/>
<path d="M10.6206 13.7988C10.2729 13.7985 9.96995 13.5832 9.88546 13.2765C9.5941 12.3655 9.73349 11.3854 10.2701 10.5718C10.8067 9.75823 11.692 9.18495 12.7128 8.9899C13.1179 8.9004 13.5265 9.12493 13.6278 9.49268C13.7291 9.86044 13.4852 10.2336 13.0815 10.3284C12.4558 10.4418 11.9118 10.7901 11.5834 11.2877C11.2551 11.7852 11.1729 12.3857 11.3572 12.9412C11.459 13.3108 11.2121 13.6855 10.8057 13.7781C10.7452 13.7921 10.683 13.799 10.6206 13.7988Z" fill="#D7A251"/>
<path d="M33.8802 13.2937L32.5329 13.9284C31.4168 14.4542 30.9807 15.7034 31.5589 16.7185L32.2568 17.9439C32.835 18.959 34.2085 19.3556 35.3247 18.8297L36.672 18.195C37.7881 17.6692 38.2242 16.42 37.646 15.4049L36.9481 14.1795C36.3699 13.1644 34.9964 12.7678 33.8802 13.2937Z" fill="#AA7727"/>
<path d="M28.7928 29.9573L27.3696 29.4812C26.1906 29.0869 24.8833 29.6364 24.4497 30.7086L23.9262 32.003C23.4926 33.0752 24.0968 34.2642 25.2758 34.6586L26.699 35.1346C27.878 35.529 29.1853 34.9795 29.6189 33.9072L30.1424 32.6129C30.576 31.5406 29.9718 30.3517 28.7928 29.9573Z" fill="#AA7727"/>
<path d="M11.3685 23.0755L9.86035 23.2301C8.61097 23.3581 7.71227 24.383 7.85304 25.5193L8.02297 26.8909C8.16375 28.0272 9.29069 28.8445 10.5401 28.7165L12.0482 28.5619C13.2976 28.4339 14.1963 27.409 14.0555 26.2727L13.8856 24.9011C13.7448 23.7648 12.6179 22.9475 11.3685 23.0755Z" fill="#AA7727"/>
<path d="M22.5918 4.56068L21.1246 4.20743C19.9091 3.91478 18.663 4.57366 18.3412 5.67907L17.9528 7.01341C17.631 8.11882 18.3555 9.25216 19.5709 9.54481L21.0381 9.89806C22.2535 10.1907 23.4997 9.53182 23.8215 8.42641L24.2099 7.09207C24.5317 5.98666 23.8072 4.85332 22.5918 4.56068Z" fill="#AA7727"/>
<path d="M18.7742 14.6316L17.3662 15.1463C16.1997 15.5727 15.6342 16.7783 16.103 17.8391L16.669 19.1197C17.1378 20.1805 18.4634 20.6948 19.6299 20.2684L21.0379 19.7537C22.2043 19.3273 22.7698 18.1217 22.301 17.0609L21.735 15.7803C21.2662 14.7195 19.9406 14.2052 18.7742 14.6316Z" fill="#AA7727"/>
</svg>
